<?xml version="1.0" encoding="utf-8"?>
<!-- Generator: Adobe Illustrator 16.0.3, SVG Export Plug-In . SVG Version: 6.00 Build 0)  -->
<!DOCTYPE svg PUBLIC "-//W3C//DTD SVG 1.0//EN" "http://www.w3.org/TR/2001/REC-SVG-20010904/DTD/svg10.dtd">
<svg version="1.0" xmlns="http://www.w3.org/2000/svg" xmlns:xlink="http://www.w3.org/1999/xlink" x="0px" y="0px"
	 width="312.603px" height="159.222px" viewBox="0 0 312.603 159.222" enable-background="new 0 0 312.603 159.222"
	 xml:space="preserve">
<g id="レイヤー_3">
	<g display="none">
		<path display="inline" fill="none" stroke="#000000" stroke-miterlimit="10" d="M-9.304,106.459c0,0-8.591-16.192-27.232-11.196
			c-0.043,0.012-0.084,0.024-0.126,0.037c0-0.044,0.002-0.087,0.002-0.131c0-19.3-17.86-23.406-17.86-23.406
			s-17.863,4.106-17.863,23.406c0,0.043,0.003,0.086,0.003,0.131c-0.041-0.012-0.083-0.025-0.126-0.037
			c-18.641-4.996-27.23,11.196-27.23,11.196s-0.618,17.282,16.435,22.849c-8.798,15.621,3.328,27.939,3.328,27.939
			s14.73,5.229,25.15-6.791c10.42,12.02,25.149,6.791,25.149,6.791s12.044-12.234,3.419-27.776
			C-8.675,124.087-9.304,106.459-9.304,106.459z"/>
		<path display="inline" fill="none" stroke="#000000" stroke-miterlimit="10" d="M-12.18,107.06c0,0-8.082-15.235-25.624-10.535
			c-0.04,0.011-0.077,0.023-0.118,0.035c0.001-0.042,0.004-0.083,0.004-0.124c0-18.16-16.809-22.023-16.809-22.023
			s-16.808,3.863-16.808,22.023c0,0.042,0.002,0.082,0.003,0.124c-0.04-0.012-0.079-0.024-0.119-0.035
			c-17.541-4.7-25.624,10.535-25.624,10.535s-0.581,16.262,15.465,21.501c-8.279,14.697,3.131,26.289,3.131,26.289
			s13.861,4.92,23.666-6.39c9.806,11.31,23.666,6.39,23.666,6.39s11.332-11.511,3.217-26.137
			C-11.588,123.647-12.18,107.06-12.18,107.06z"/>
		<path display="inline" fill="none" stroke="#000000" stroke-miterlimit="10" d="M-15.053,107.896c0,0-7.537-14.206-23.894-9.823
			c-0.037,0.009-0.074,0.021-0.111,0.032c0.001-0.039,0.004-0.076,0.004-0.115c0-16.933-15.724-20.536-15.724-20.536
			S-70.5,81.058-70.5,97.991c0,0.039,0,0.076,0,0.115c0-0.01-0.021-0.022-0.057-0.032c-16.357-4.383-23.868,9.823-23.868,9.823
			s-0.529,15.164,14.433,20.048c-7.72,13.705,2.925,24.514,2.925,24.514s12.929,4.588,22.07-5.958
			c9.145,10.547,22.068,5.958,22.068,5.958s10.568-10.733,3.001-24.372C-14.503,123.363-15.053,107.896-15.053,107.896z"/>
		<path display="inline" fill="none" stroke="#000000" stroke-miterlimit="10" d="M-20.925,110.701c0,0-6.433-12.125-20.394-8.384
			c-0.032,0.009-0.063,0.019-0.095,0.028c0.001-0.034,0.003-0.066,0.003-0.099c0-14.454-13.377-17.529-13.377-17.529
			s-13.378,3.076-13.378,17.529c0,0.033,0.002,0.064,0.003,0.099c-0.033-0.009-0.063-0.019-0.096-0.028
			c-13.96-3.741-20.393,8.384-20.393,8.384s-0.463,12.943,12.308,17.112c-6.588,11.698,2.493,20.924,2.493,20.924
			s11.03,3.917,18.834-5.086c7.806,9.003,18.837,5.086,18.837,5.086s9.02-9.162,2.561-20.802
			C-20.453,123.903-20.925,110.701-20.925,110.701z"/>
		<circle display="inline" fill="none" stroke="#000000" stroke-miterlimit="10" cx="-54.726" cy="106.256" r="3.285"/>
		<circle display="inline" fill="none" stroke="#000000" stroke-miterlimit="10" cx="-43.64" cy="112.826" r="3.285"/>
		<circle display="inline" fill="none" stroke="#000000" stroke-miterlimit="10" cx="-66.224" cy="113.237" r="3.285"/>
		<circle display="inline" fill="none" stroke="#000000" stroke-miterlimit="10" cx="-54.726" cy="130.893" r="3.285"/>
		<circle display="inline" fill="none" stroke="#000000" stroke-miterlimit="10" cx="-66.224" cy="124.734" r="3.285"/>
		<circle display="inline" fill="none" stroke="#000000" stroke-miterlimit="10" cx="-43.64" cy="124.734" r="3.285"/>
	</g>
	<polygon display="none" fill="none" stroke="#000000" stroke-miterlimit="10" points="-272.096,199.735 -291.118,210.755 
		-310.172,199.79 -310.203,177.807 -291.181,166.788 -272.126,177.752 	"/>
	<g>
		<path fill="#171717" d="M92.852,76.482c0.528-0.864,1.009-1.873,1.44-3.057c0.929,0.304,1.393,0.56,1.393,0.784
			c0,0.128-0.24,0.208-0.688,0.24c-0.512,0.752-1.056,1.409-1.632,2.033h2.641l0.544-0.672c0.673,0.625,1.024,1.024,1.024,1.185
			c0,0.048-0.063,0.112-0.208,0.16l-0.448,0.144c-0.4,0.48-0.848,0.928-1.345,1.329l-0.271-0.208
			c0.384-0.688,0.624-1.201,0.736-1.569h-9.508c0,0.08,0,0.16,0,0.208c0,0.736-0.112,1.329-0.4,1.777
			c-0.208,0.336-0.448,0.496-0.688,0.496c-0.368,0-0.528-0.176-0.528-0.512c0-0.176,0.064-0.304,0.208-0.432
			c0.593-0.544,0.913-1.36,0.977-2.401l0.336,0.016c0.049,0.304,0.08,0.448,0.08,0.48H92.852z M92.243,80.628
			c0,0.112-0.208,0.224-0.608,0.336v0.848h4.098l0.769-1.008c0.353,0.336,0.672,0.688,0.961,1.104l-0.177,0.272h-5.602v3.042
			c0,0.72-0.513,1.104-1.553,1.121c0,0,0,0,0-0.016c0-0.256-0.112-0.417-0.353-0.544c-0.288-0.128-0.912-0.272-1.856-0.416v-0.384
			c1.072,0.112,1.889,0.16,2.417,0.16c0.336,0,0.496-0.144,0.496-0.432v-2.529h-5.666l-0.177-0.368h5.795v-1.696
			c0.111,0.016,0.352,0.064,0.768,0.144l0.08-0.048c0.656-0.416,1.232-0.848,1.745-1.329h-6.003l-0.159-0.368h6.21l0.593-0.592
			c0.704,0.544,1.04,0.896,1.04,1.024c0,0.08-0.064,0.128-0.225,0.16l-0.399,0.064c-0.656,0.432-1.457,0.848-2.434,1.248
			C92.163,80.484,92.243,80.564,92.243,80.628z M86.737,73.633c1.473,0.512,2.209,1.121,2.209,1.793c0,0.384-0.177,0.56-0.513,0.56
			c-0.208,0-0.368-0.16-0.496-0.464c-0.256-0.592-0.704-1.12-1.393-1.601L86.737,73.633z M89.811,73.409
			c1.313,0.608,1.952,1.281,1.952,1.969c0,0.353-0.176,0.544-0.512,0.544c-0.256,0-0.416-0.176-0.496-0.512
			c-0.145-0.576-0.528-1.152-1.169-1.745L89.811,73.409z"/>
		<path fill="#171717" d="M102.753,79.444c-0.496,1.473-1.168,2.897-2.001,4.273l-0.319-0.224c1.056-1.969,1.809-4.098,2.288-6.402
			h-1.984l-0.112-0.368h2.129v-3.185c0.912,0.032,1.393,0.176,1.393,0.4c0,0.096-0.192,0.208-0.576,0.336v2.449h0.769l0.688-0.96
			c0.304,0.336,0.576,0.672,0.832,1.057l-0.16,0.272h-2.129v1.537c1.104,0.833,1.665,1.617,1.665,2.289
			c0,0.352-0.145,0.544-0.448,0.544c-0.225,0-0.353-0.192-0.416-0.544c-0.112-0.497-0.385-1.073-0.801-1.729v7.283h-0.816V79.444z
			 M107.443,79.956l0.352-0.208c0.641,1.152,1.217,2.033,1.761,2.625c0.017-0.032,0.048-0.064,0.048-0.096
			c0.433-0.736,0.849-1.681,1.217-2.897c0.784,0.352,1.185,0.608,1.185,0.784c0,0.128-0.192,0.192-0.576,0.224
			c-0.305,0.8-0.752,1.665-1.36,2.561c0.944,0.977,2.192,1.809,3.729,2.449c-0.225,0.192-0.448,0.448-0.656,0.801
			c-1.345-0.688-2.497-1.569-3.474-2.657c-1.089,1.296-2.577,2.257-4.481,2.881l-0.225-0.336c1.793-0.736,3.169-1.792,4.178-3.169
			C108.563,82.069,107.987,81.077,107.443,79.956z M105.49,80.564c0.912-0.96,1.633-2.145,2.145-3.601
			c0.784,0.336,1.169,0.608,1.169,0.784c0,0.128-0.208,0.208-0.641,0.224c-0.544,1.121-1.345,2.065-2.417,2.849L105.49,80.564z
			 M109.124,76.05v-2.497c0.928,0.032,1.393,0.16,1.393,0.368c0,0.128-0.192,0.256-0.593,0.384v1.745h2.097l0.721-0.944
			c0.288,0.272,0.592,0.608,0.944,1.024l-0.16,0.288h-7.523l-0.159-0.368H109.124z M110.468,76.995
			c0.977,0.48,1.729,0.993,2.273,1.521c0.448,0.433,0.672,0.801,0.672,1.104c0,0.368-0.16,0.561-0.479,0.561
			c-0.192,0-0.385-0.16-0.528-0.464c-0.4-0.864-1.104-1.681-2.113-2.433L110.468,76.995z"/>
		<path fill="#171717" d="M117.009,76.883c1.344,0.4,2.017,0.928,2.017,1.601c0,0.384-0.16,0.56-0.496,0.56
			c-0.225,0-0.385-0.112-0.448-0.352c-0.192-0.576-0.576-1.104-1.217-1.537L117.009,76.883z M121.042,76.307l-1.873,6.322
			l-0.063,0.192c-0.097,0.384-0.16,0.672-0.16,0.832c0,0.144,0.032,0.336,0.096,0.561c0.128,0.448,0.192,0.864,0.192,1.28
			c0,0.625-0.225,0.944-0.673,0.944c-0.352,0-0.527-0.16-0.527-0.496c0-0.016,0.016-0.208,0.063-0.576
			c0.064-0.4,0.097-0.752,0.097-1.057c0-0.896-0.4-1.408-1.201-1.537v-0.384c0.256,0.048,0.465,0.064,0.608,0.064
			c0.433,0,0.721-0.176,0.881-0.512c0.64-1.313,1.376-3.266,2.192-5.875L121.042,76.307z M118.049,73.777
			c1.408,0.352,2.113,0.849,2.113,1.521c0,0.384-0.177,0.561-0.497,0.561c-0.208,0-0.368-0.16-0.479-0.448
			c-0.192-0.496-0.625-0.944-1.297-1.345L118.049,73.777z M125.268,79.86h2.689l0.784-1.056c0.32,0.304,0.656,0.672,1.009,1.104
			l-0.192,0.304h-4.418c-0.048,0.08-0.08,0.128-0.08,0.176c-0.624,1.457-1.328,2.817-2.112,4.082l0.416-0.016
			c1.536-0.064,2.993-0.24,4.369-0.384c-0.432-0.672-1.04-1.425-1.889-2.273l0.24-0.272c1.313,0.913,2.273,1.825,2.945,2.801
			c0.304,0.464,0.464,0.833,0.464,1.152c0,0.4-0.176,0.592-0.512,0.592c-0.192,0-0.368-0.208-0.528-0.624
			c-0.112-0.272-0.288-0.625-0.48-0.993c-1.952,0.353-4.13,0.672-6.563,0.977c-0.096,0.352-0.192,0.528-0.304,0.528
			c-0.192,0-0.385-0.464-0.576-1.409l1.584-0.048h0.353c0.688-1.409,1.217-2.833,1.568-4.29h-3.554l-0.144-0.352h4.081v-3.137
			h-2.816l-0.112-0.368h2.929v-2.753c0.993,0.032,1.473,0.144,1.473,0.368c0,0.128-0.208,0.272-0.624,0.432v1.953h2.113l0.656-0.977
			c0.271,0.24,0.576,0.608,0.944,1.057l-0.16,0.288h-3.554V79.86z"/>
		<path fill="#171717" d="M139.443,75.298c0,4.482,2.08,7.748,6.258,9.748c-0.384,0.272-0.672,0.561-0.832,0.849
			c-2.225-1.377-3.729-2.978-4.594-4.818c-0.448-0.993-0.769-2.129-0.944-3.41c-0.272,2.129-0.881,3.874-1.825,5.202
			c-1.008,1.409-2.545,2.481-4.577,3.265l-0.208-0.32c2.208-1.073,3.761-2.529,4.642-4.37c0.769-1.616,1.185-3.633,1.185-6.034
			v-1.376c1.008,0.048,1.536,0.176,1.536,0.384c0,0.145-0.224,0.289-0.64,0.417V75.298z"/>
		<path fill="#171717" d="M161.877,74.69l0.56-0.688c0.624,0.48,0.929,0.784,0.929,0.913c0,0.048-0.048,0.096-0.145,0.176
			l-0.336,0.288v5.298h-0.88v-0.784h-3.186v2.337h4.193l0.816-1.088c0.416,0.384,0.784,0.768,1.089,1.168l-0.177,0.288h-5.922v3.874
			h-0.912v-3.874h-5.795l-0.208-0.368h6.003v-2.337h-3.122v0.896h-0.88v-6.546c0.288,0.096,0.641,0.256,1.072,0.448H161.877z
			 M154.785,75.042v2.001h7.22v-2.001H154.785z M162.005,79.54v-2.128h-7.22v2.128H162.005z"/>
		<path fill="#171717" d="M169.905,80.404c-0.464,1.28-1.072,2.513-1.873,3.729l-0.336-0.208c1.009-1.841,1.729-3.81,2.161-5.922
			h-1.937l-0.145-0.368h2.129v-2.337c-0.641,0.144-1.297,0.256-1.921,0.353l-0.144-0.353c1.632-0.352,2.961-0.88,4.001-1.568
			c0.608,0.4,0.913,0.688,0.913,0.864c0,0.096-0.08,0.128-0.24,0.128c-0.112,0-0.257-0.016-0.416-0.048
			c-0.385,0.144-0.816,0.24-1.249,0.384l-0.128,0.048v2.529h0.656l0.641-0.913c0.271,0.272,0.56,0.592,0.832,1.008l-0.176,0.272
			h-1.953v1.408c0.448,0.256,0.88,0.561,1.28,0.96c0.465,0.48,0.688,0.913,0.688,1.281c0,0.304-0.145,0.464-0.433,0.464
			c-0.224,0-0.384-0.176-0.512-0.544c-0.176-0.576-0.513-1.121-1.024-1.681v6.579h-0.816V80.404z M172.595,75.362
			c2.688-0.368,4.914-0.913,6.723-1.649c0.656,0.416,0.992,0.704,0.992,0.88c0,0.096-0.08,0.128-0.24,0.128
			c-0.096,0-0.272-0.016-0.528-0.064c-2.161,0.496-4.418,0.864-6.803,1.073L172.595,75.362z M173.171,86.471v-7.587
			c0.896,0.048,1.345,0.176,1.345,0.384c0,0.096-0.177,0.208-0.545,0.352v6.851H173.171z M173.459,76.002
			c1.088,0.752,1.633,1.473,1.633,2.161c0,0.384-0.177,0.576-0.513,0.576c-0.24,0-0.384-0.176-0.416-0.544
			c-0.08-0.656-0.384-1.329-0.944-1.969L173.459,76.002z M179.237,79.412l0.512-0.624c0.576,0.448,0.849,0.736,0.849,0.832
			c0,0.08-0.048,0.128-0.128,0.192l-0.336,0.224v6.435h-0.816v-1.088h-3.01v1.088h-0.832v-7.443c0.336,0.112,0.641,0.24,0.896,0.384
			H179.237z M175.748,75.778c1.04,0.704,1.568,1.424,1.568,2.161c0,0.384-0.176,0.576-0.544,0.576c-0.225,0-0.353-0.208-0.4-0.624
			c-0.048-0.592-0.32-1.232-0.849-1.889L175.748,75.778z M179.317,82.165v-2.401h-3.01v2.401H179.317z M179.317,82.517h-3.01v2.513
			h3.01V82.517z M177.973,78.724c0.48-1.057,0.864-2.209,1.185-3.441c0.849,0.32,1.28,0.576,1.28,0.784
			c0,0.128-0.208,0.224-0.608,0.224c-0.432,0.96-0.928,1.825-1.536,2.593L177.973,78.724z"/>
		<path fill="#171717" d="M194.517,75.234l0.576-0.688c0.593,0.464,0.896,0.768,0.896,0.896c0,0.08-0.063,0.128-0.16,0.192
			l-0.336,0.224v10.068h-0.864v-1.152h-8.628v1.296h-0.864V74.738c0.305,0.128,0.656,0.288,1.024,0.496H194.517z M186.001,75.586
			v4.082h3.826v-4.082H186.001z M189.827,80.036h-3.826v4.37h3.826V80.036z M194.629,79.668v-4.082h-3.97v4.082H194.629z
			 M194.629,84.406v-4.37h-3.97v4.37H194.629z"/>
		<path fill="#171717" d="M208.052,76.482c0.528-0.864,1.009-1.873,1.44-3.057c0.929,0.304,1.393,0.56,1.393,0.784
			c0,0.128-0.24,0.208-0.688,0.24c-0.512,0.752-1.056,1.409-1.632,2.033h2.641l0.544-0.672c0.673,0.625,1.024,1.024,1.024,1.185
			c0,0.048-0.063,0.112-0.208,0.16l-0.448,0.144c-0.4,0.48-0.848,0.928-1.345,1.329l-0.271-0.208
			c0.384-0.688,0.624-1.201,0.736-1.569h-9.508c0,0.08,0,0.16,0,0.208c0,0.736-0.112,1.329-0.4,1.777
			c-0.208,0.336-0.448,0.496-0.688,0.496c-0.368,0-0.528-0.176-0.528-0.512c0-0.176,0.064-0.304,0.208-0.432
			c0.593-0.544,0.913-1.36,0.977-2.401l0.336,0.016c0.049,0.304,0.08,0.448,0.08,0.48H208.052z M207.443,80.628
			c0,0.112-0.208,0.224-0.608,0.336v0.848h4.098l0.769-1.008c0.353,0.336,0.672,0.688,0.961,1.104l-0.177,0.272h-5.603v3.042
			c0,0.72-0.512,1.104-1.552,1.121c0,0,0,0,0-0.016c0-0.256-0.112-0.417-0.353-0.544c-0.288-0.128-0.912-0.272-1.856-0.416v-0.384
			c1.072,0.112,1.889,0.16,2.417,0.16c0.336,0,0.496-0.144,0.496-0.432v-2.529h-5.666l-0.177-0.368h5.795v-1.696
			c0.111,0.016,0.352,0.064,0.768,0.144l0.08-0.048c0.656-0.416,1.232-0.848,1.745-1.329h-6.003l-0.159-0.368h6.21l0.593-0.592
			c0.704,0.544,1.04,0.896,1.04,1.024c0,0.08-0.064,0.128-0.225,0.16l-0.399,0.064c-0.656,0.432-1.457,0.848-2.434,1.248
			C207.363,80.484,207.443,80.564,207.443,80.628z M201.938,73.633c1.473,0.512,2.209,1.121,2.209,1.793
			c0,0.384-0.177,0.56-0.513,0.56c-0.208,0-0.368-0.16-0.496-0.464c-0.256-0.592-0.704-1.12-1.393-1.601L201.938,73.633z
			 M205.011,73.409c1.313,0.608,1.952,1.281,1.952,1.969c0,0.353-0.176,0.544-0.512,0.544c-0.256,0-0.416-0.176-0.496-0.512
			c-0.145-0.576-0.528-1.152-1.169-1.745L205.011,73.409z"/>
		<path fill="#171717" d="M227.077,74.498l0.561-0.64c0.592,0.448,0.896,0.752,0.896,0.896c0,0.08-0.031,0.128-0.128,0.192
			l-0.336,0.224v11.301h-0.849v-0.929h-9.779v0.929h-0.849V74.018c0.016,0,0.128,0.064,0.353,0.144
			c0.096,0.048,0.336,0.16,0.656,0.336H227.077z M217.441,74.85v10.34h9.779V74.85H217.441z M224.355,79.028l0.448-0.48
			c0.545,0.352,0.833,0.608,0.833,0.736c0,0.032-0.032,0.064-0.097,0.112l-0.336,0.224v1.473c0.096-0.128,0.192-0.272,0.288-0.48
			c0.608,0.336,0.896,0.592,0.896,0.752c0,0.112-0.08,0.144-0.272,0.144c-0.08,0-0.159,0-0.224-0.016
			c-0.384,0.336-0.816,0.64-1.313,0.912c1.232,0.448,1.841,0.929,1.841,1.377c0,0.288-0.112,0.432-0.385,0.432
			c-0.144,0-0.336-0.096-0.56-0.32c-0.593-0.592-1.489-1.136-2.722-1.648v2.561h-0.784v-2.833c-1.088,0.896-2.385,1.617-3.873,2.113
			l-0.192-0.32c1.681-0.672,2.993-1.585,3.97-2.737h-1.745v0.416h-0.784v-2.849c0.305,0.144,0.593,0.288,0.864,0.433H224.355z
			 M221.971,77.827v-1.104h-3.121l-0.16-0.352h3.281v-1.185c0.864,0.016,1.297,0.112,1.297,0.304c0,0.096-0.176,0.224-0.513,0.336
			v0.544h1.889l0.608-0.752c0.353,0.304,0.625,0.576,0.833,0.833l-0.112,0.272h-3.218v1.104h2.401l0.624-0.736
			c0.288,0.24,0.576,0.512,0.864,0.816l-0.144,0.272h-8.212l-0.16-0.352H221.971z M224.468,80.66v-1.265h-4.338v1.265H224.468z
			 M224.468,81.028h-1.568c0,0-0.048,0.048-0.145,0.16v0.688c0.48,0.096,0.944,0.24,1.425,0.384
			c0.336-0.352,0.641-0.672,0.912-1.008h-0.624V81.028z"/>
	</g>
	<g>
		<path fill="#171717" d="M32.362,113.501c0.054-1.425-0.11-3.505-1.589-4.984c-1.588-1.589-3.012-2.19-4.983-2.41
			c-1.699-0.165-3.67,0.273-4.931,0.876c-1.368,0.603-3.559,1.972-4.874,3.013c-1.425,0.986-3.451,2.739-4.983,3.998
			c-1.644,1.37-3.67,2.136-5.367,2.082c-1.698,0-3.505-0.932-4.438-1.698c-0.931-0.767-1.424-1.753-1.095-2.136
			c0.438-0.548,1.095-0.329,1.588-0.219c0.822,0.219,1.807,0.383,2.958,0.383c1.149-0.055,2.189-0.822,3.121-1.26
			c0.932-0.438,4.107-2.246,5.478-3.067c1.369-0.767,3.287-1.752,5.258-2.575c2.027-0.876,4.327-1.697,6.901-1.752
			c2.685,0,5.367,1.205,7.174,2.903c1.644,1.534,2.63,3.396,2.903,6.134c0.273,2.629-0.383,5.04-2.026,7.395
			c-1.644,2.3-4.436,4.053-6.627,5.093c-2.137,0.986-4.601,2.082-7.065,2.684c-1.917,0.438-3.56,0.603-4.163,0.603
			c-0.602-0.055-0.985-0.219-0.985-0.493c0-0.274,0.273-0.603,0.877-0.658c0.548-0.054,1.148,0.055,3.45-0.602
			c2.355-0.603,4.983-1.862,6.9-2.903c1.808-0.985,3.889-3.121,4.93-4.655C31.813,117.773,32.307,115.199,32.362,113.501z"/>
		<path fill="#171717" d="M87.14,113.501c0.054-1.425-0.11-3.505-1.588-4.984c-1.589-1.589-3.013-2.19-4.984-2.41
			c-1.697-0.165-3.67,0.273-4.931,0.876c-1.368,0.603-3.559,1.972-4.874,3.013c-1.425,0.986-3.45,2.739-4.983,3.998
			c-1.644,1.37-3.67,2.136-5.367,2.082c-1.698,0-3.505-0.932-4.438-1.698c-0.931-0.767-1.424-1.753-1.095-2.136
			c0.438-0.548,1.095-0.329,1.588-0.219c0.822,0.219,1.807,0.383,2.958,0.383c1.149-0.055,2.189-0.822,3.122-1.26
			c0.931-0.438,4.107-2.246,5.477-3.067c1.37-0.767,3.287-1.752,5.258-2.575c2.027-0.876,4.328-1.697,6.901-1.752
			c2.685,0,5.368,1.205,7.175,2.903c1.643,1.534,2.629,3.396,2.902,6.134c0.273,2.629-0.383,5.04-2.026,7.395
			c-1.643,2.3-4.436,4.053-6.627,5.093c-2.137,0.986-4.601,2.082-7.065,2.684c-1.917,0.438-3.56,0.603-4.162,0.603
			c-0.603-0.055-0.985-0.219-0.985-0.493c0-0.274,0.272-0.603,0.876-0.658c0.548-0.054,1.149,0.055,3.451-0.602
			c2.354-0.603,4.982-1.862,6.9-2.903c1.807-0.985,3.889-3.121,4.93-4.655C86.592,117.773,87.085,115.199,87.14,113.501z"/>
		<path fill="#171717" d="M115.463,106.983c0.165-1.808,0.548-5.093,0.548-6.189c0-1.095-0.767-2.3-0.985-2.739
			c-0.274-0.438-0.329-1.095,0.054-1.424c0.384-0.383,1.041-0.055,1.589,0.22c0.493,0.273,1.315,0.712,2.136,1.752
			c0.822,0.931,0.439,2.41,0.165,3.779c-0.329,1.424-0.985,3.998-1.26,5.421c-0.22,1.37-0.877,6.463-1.041,8.38
			c-0.219,1.862-0.548,5.148-0.219,7.614c0.329,2.464,1.478,4.217,2.901,5.586c1.425,1.369,4.163,1.971,5.807,1.862
			c1.698-0.055,3.615-0.548,4.819-1.15c1.096-0.603,3.561-1.862,4.931-2.738c1.368-0.822,3.505-2.355,4.326-3.013
			c0.821-0.657,2.136-1.862,2.464-2.081c0.274-0.329,0.659-0.438,0.932-0.274c0.164,0.219,0.219,0.602-0.055,0.876
			c-0.274,0.384-1.15,1.26-2.245,2.301c-1.096,0.985-3.451,3.067-6.354,5.203c-2.793,2.081-6.025,3.231-8.49,3.45
			c-2.519,0.274-5.531-0.603-7.339-1.917c-1.861-1.315-3.614-3.669-4.053-6.189c-0.493-2.574,0-5.751,0.164-7.777
			C114.478,115.911,115.299,108.682,115.463,106.983z M136.001,108.244c-0.766-0.822-1.753-1.589-3.121-2.52
			c-0.438-0.274-0.713-0.658-0.438-1.096c0.11-0.218,0.603-0.164,0.876-0.164c0.877,0,1.863,0.274,3.013,0.658
			c1.095,0.438,2.739,1.314,3.232,2.19c0.547,0.932,0.054,1.808-0.713,2.027C138.028,109.558,136.823,109.065,136.001,108.244z
			 M140.329,106.052c-0.767-0.986-1.699-1.588-3.341-2.3c-0.493-0.219-0.658-0.657-0.493-1.041c0.164-0.274,0.657-0.219,0.876-0.219
			c0.931-0.055,1.917,0.11,3.067,0.494c1.15,0.328,2.738,1.15,3.342,2.081c0.601,0.876,0.107,1.698-0.659,1.972
			C142.356,107.312,141.096,106.874,140.329,106.052z"/>
		<path fill="#171717" d="M164.928,127.413c4.271-6.408,8.38-13.747,11.994-22.126c2.63,1.15,3.889,2.081,3.889,2.793
			c0,0.438-0.383,0.603-1.095,0.603c-0.384,0-0.658,0-0.877-0.055c-3.834,7.12-8.051,13.638-12.762,19.498l0.822-0.164
			c2.684-0.493,6.024-1.205,10.022-2.19c-0.984-1.972-2.081-3.615-3.505-5.149l0.876-0.821c4.765,3.505,7.176,6.683,7.176,9.53
			c0,1.369-0.603,2.026-1.697,2.026c-0.768,0-1.206-0.602-1.479-1.752c-0.164-0.547-0.438-1.369-0.822-2.52
			c-3.506,1.424-8.379,3.013-14.623,4.765c-0.219,1.26-0.493,1.862-0.877,1.862c-0.711,0-1.424-1.533-2.3-4.546
			c2.737-0.438,4.218-0.657,4.547-0.712L164.928,127.413z M171.391,94.276c3.013,1.15,4.49,2.082,4.49,2.849
			c0,0.438-0.711,0.712-2.135,0.876c-1.917,4.327-4.272,8.325-6.956,12.049c2.245,2.026,3.396,3.779,3.396,5.258
			c0,1.205-0.547,1.808-1.588,1.808c-0.604,0-1.15-0.548-1.644-1.698c-1.26-2.903-3.505-5.641-6.901-8.325l0.657-0.931
			c1.862,0.931,3.507,1.972,4.984,3.067C167.775,105.286,169.692,100.302,171.391,94.276z M190.944,106.928
			c-0.22,6.627-1.042,12.269-2.684,16.815c-2.027,5.806-5.532,10.352-10.571,13.528l-0.768-0.986
			c5.04-4.327,8.381-10.023,9.859-17.307c0.713-3.177,1.096-7.12,1.26-11.831h-6.299l-0.547-1.205h6.9V93.456
			c3.177,0.054,4.819,0.438,4.819,1.204c0,0.439-0.656,0.876-1.916,1.315v9.694h7.394l1.972-2.355
			c1.972,1.643,2.958,2.738,2.958,3.177c0,0.219-0.164,0.438-0.384,0.548l-1.314,0.821c-0.055,14.131-0.767,22.729-2.136,25.742
			c-1.041,2.19-2.958,3.341-5.752,3.396c-0.108-0.986-0.493-1.698-1.478-2.136c-0.768-0.383-2.356-0.767-4.765-1.259v-1.37
			c2.519,0.438,4.654,0.712,6.517,0.712c1.807,0,2.958-0.931,3.341-2.738c0.985-4.655,1.424-12.433,1.424-23.278H190.944z"/>
		<path fill="#171717" d="M234.986,109.722c-1.424,2.19-3.177,4.327-5.203,6.572c1.698,1.752,2.52,3.286,2.52,4.546
			c0,1.15-0.548,1.752-1.588,1.752c-0.713,0-1.261-0.657-1.588-1.862c-0.604-2.081-1.917-4.217-4-6.353v23.058h-2.848v-21.525
			c-1.861,4.765-4.218,9.201-7.065,13.309l-1.149-0.767c3.833-6.134,6.518-12.871,8.051-19.991h-7.065l-0.438-1.259h7.667v-8.107
			c-2.629,0.548-4.93,0.986-6.9,1.26l-0.493-1.15c5.75-1.095,10.57-2.903,14.349-5.258c2.191,1.26,3.287,2.246,3.287,2.794
			c0,0.329-0.329,0.438-0.876,0.438c-0.384,0-0.877-0.055-1.479-0.165c-1.589,0.548-3.341,0.986-5.039,1.424v8.764h2.794
			l2.081-3.451c0.986,1.205,1.862,2.41,2.63,3.67l-0.493,1.041h-7.012v4.437c1.425,0.657,2.63,1.479,3.671,2.465
			c4.601-5.861,7.941-13.255,10.076-22.073c3.068,0.767,4.601,1.533,4.601,2.3c0,0.384-0.711,0.712-2.189,0.986
			c-0.931,2.574-2.027,5.313-3.342,7.997h7.176l0.108-0.22c1.261-3.231,2.411-6.682,3.286-10.516
			c2.958,1.096,4.437,2.026,4.437,2.738c0,0.383-0.603,0.657-1.971,0.767c-1.096,2.246-2.573,4.656-4.327,7.23h6.243l2.246-3.013
			c0.986,0.822,1.972,1.971,3.012,3.341l-0.492,0.931h-9.969v7.777h3.67l2.301-3.122l0.657,0.767
			c0.657,0.657,1.424,1.533,2.135,2.629l-0.492,0.986h-8.271v8.216h3.67l2.355-3.013c0.219,0.274,0.384,0.383,0.493,0.493
			c0.767,0.767,1.588,1.753,2.354,2.738l-0.547,0.986h-8.326v8.818h5.971l2.52-3.341c1.204,1.096,2.19,2.3,3.066,3.505l-0.547,1.041
			H237.89v3.122h-2.903V109.722z M237.89,105.833v7.777h6.955v-7.777H237.89z M237.89,114.871v8.216h6.955v-8.216H237.89z
			 M237.89,124.291v8.818h6.955v-8.818H237.89z"/>
		<path fill="#171717" d="M307.619,96.468l1.917-2.191c2.026,1.534,3.066,2.575,3.066,3.067c0,0.274-0.108,0.438-0.438,0.658
			l-1.15,0.766v38.668h-2.902v-3.177h-33.465v3.177h-2.903V94.824c0.056,0,0.439,0.219,1.206,0.494
			c0.328,0.164,1.149,0.547,2.245,1.15H307.619z M274.647,97.672v35.382h33.465V97.672H274.647z M298.309,111.968l1.533-1.644
			c1.861,1.206,2.848,2.082,2.848,2.52c0,0.11-0.109,0.219-0.329,0.383l-1.15,0.767v5.039c0.329-0.438,0.658-0.931,0.986-1.643
			c2.082,1.15,3.067,2.026,3.067,2.574c0,0.384-0.273,0.493-0.931,0.493c-0.273,0-0.549,0-0.767-0.055
			c-1.315,1.15-2.794,2.19-4.491,3.122c4.217,1.533,6.299,3.176,6.299,4.71c0,0.985-0.384,1.478-1.314,1.478
			c-0.493,0-1.15-0.328-1.917-1.095c-2.027-2.027-5.094-3.889-9.312-5.642v8.763h-2.685v-9.695
			c-3.724,3.067-8.159,5.532-13.253,7.23l-0.658-1.096c5.752-2.3,10.242-5.422,13.583-9.366h-5.971v1.424h-2.684v-9.749
			c1.042,0.493,2.026,0.986,2.958,1.479H298.309z M290.146,107.86v-3.779h-10.68l-0.548-1.205h11.228v-4.053
			c2.958,0.055,4.438,0.383,4.438,1.041c0,0.329-0.604,0.767-1.753,1.15v1.862h6.462l2.082-2.574
			c1.205,1.041,2.136,1.972,2.848,2.848l-0.383,0.931h-11.009v3.779h8.215l2.138-2.52c0.984,0.822,1.971,1.752,2.956,2.793
			l-0.492,0.931H277.55l-0.548-1.205H290.146z M298.691,117.555v-4.328h-14.844v4.328H298.691z M298.691,118.814h-5.368
			c0,0-0.164,0.165-0.492,0.548v2.354c1.644,0.329,3.231,0.822,4.874,1.315c1.15-1.205,2.191-2.3,3.122-3.451h-2.136V118.814z"/>
	</g>
	<g display="none">
		<path display="inline" d="M32.942,115.26c-0.085-0.894-0.359-1.459-1.45-2.55c-1.45-1.45-2.75-2-4.551-2.2
			c-1.55-0.15-3.35,0.25-4.5,0.8c-1.25,0.55-3.122,0.989-4.45,1.75c-1.493,0.855-3.15,1.5-4.551,2.65c-1.5,1.25-3.35,1.95-4.899,1.9
			c-1.551,0-3.289-0.754-4.051-1.55c-1.271-1.328-1.148-3.514-1-3.95c0.15-0.44,0.494-1.097,1.45-1.2
			c0.771-0.083,1.65,0.35,2.7,0.35c1.05-0.05,2.609-0.15,2.85-0.15c1.718,0,3.822-0.284,5.001-0.8c1.313-0.575,3-1.6,4.8-2.35
			c1.851-0.8,3.95-1.55,6.301-1.6c2.45,0,4.9,1.1,6.55,2.65c1.501,1.4,2.4,3.1,2.65,5.601c0.25,2.4-0.35,4.6-1.85,6.75
			c-1.5,2.101-4.051,3.7-6.051,4.65c-1.95,0.9-4.2,1.9-6.45,2.45c-1.75,0.4-3.25,0.55-3.801,0.55c-0.55-0.05-0.899-0.2-0.899-0.45
			s0.25-0.55,0.8-0.6c0.5-0.05,1.05,0.05,3.15-0.55c2.15-0.55,4.55-1.7,6.3-2.65c1.65-0.9,3.551-2.85,4.501-4.25
			C32.442,119.161,33.089,116.804,32.942,115.26z"/>
		<path d="M82.942,115.26c0.05-1.3-0.101-3.2-1.45-4.55c-1.45-1.45-2.75-2-4.551-2.2c-1.55-0.15-3.35,0.25-4.5,0.8
			c-1.25,0.55-3.25,1.8-4.45,2.75c-1.3,0.9-3.15,2.5-4.551,3.65c-1.5,1.25-3.35,1.95-4.899,1.9c-1.551,0-3.2-0.85-4.051-1.55
			c-0.85-0.7-1.3-1.6-1-1.95c0.4-0.5,1-0.3,1.45-0.2c0.75,0.2,1.65,0.35,2.7,0.35c1.05-0.05,2-0.75,2.85-1.15
			c0.851-0.4,3.751-2.05,5.001-2.8c1.25-0.7,3-1.6,4.8-2.35c1.851-0.8,3.95-1.55,6.301-1.6c2.45,0,4.9,1.1,6.55,2.65
			c1.501,1.4,2.4,3.1,2.65,5.601c0.25,2.4-0.35,4.6-1.85,6.75c-1.5,2.101-4.051,3.7-6.051,4.65c-1.95,0.9-4.2,1.9-6.45,2.45
			c-1.75,0.4-3.25,0.55-3.801,0.55c-0.55-0.05-0.899-0.2-0.899-0.45s0.25-0.55,0.8-0.6c0.5-0.05,1.05,0.05,3.15-0.55
			c2.15-0.55,4.55-1.7,6.3-2.65c1.65-0.9,3.551-2.85,4.501-4.25C82.442,119.161,82.892,116.81,82.942,115.26z"/>
		<path display="inline" d="M106.791,109.31c0.149-1.65,0.885-5.375,0.5-5.65c-0.958-0.687-1.7-2.1-1.9-2.5
			c-0.25-0.4-0.3-1,0.05-1.3c0.351-0.35,2.95-0.05,3.45,0.2c0.45,0.25,2.709,1.901,3.459,2.851c0.75,0.85,0.65,2.042,0.15,3.45
			c-0.446,1.258-1.227,2.363-1.659,3.7c-0.622,1.922-0.8,5.9-0.95,7.65c-0.2,1.7-0.5,4.7-0.2,6.95c0.3,2.25,1.351,3.851,2.65,5.101
			s3.8,1.8,5.3,1.7c1.551-0.05,3.301-0.5,4.4-1.05c1-0.55,3.251-1.7,4.501-2.5c1.25-0.75,3.2-2.15,3.95-2.75s1.95-1.7,2.25-1.9
			c0.25-0.3,0.6-0.4,0.85-0.25c0.15,0.2,0.2,0.55-0.05,0.8c-0.25,0.35-1.05,1.15-2.05,2.1c-1,0.9-3.15,2.8-5.801,4.75
			c-2.55,1.9-5.5,2.95-7.75,3.15c-2.301,0.25-5.051-0.55-6.701-1.75c-1.699-1.2-3.3-3.35-3.7-5.65c-0.449-2.35-1-5.25-0.85-7.1
			C106.891,117.46,106.641,110.86,106.791,109.31z M127.542,110.46c-0.7-0.75-1.601-1.45-2.851-2.3c-0.4-0.25-0.65-0.6-0.4-1
			c0.101-0.2,0.551-0.15,0.801-0.15c0.8,0,1.7,0.25,2.75,0.6c1,0.4,2.5,1.2,2.95,2c0.5,0.85,0.05,1.65-0.65,1.85
			C129.392,111.66,128.292,111.21,127.542,110.46z M132.492,106.46c-0.7-0.9-1.551-1.45-3.051-2.1c-0.449-0.2-0.6-0.6-0.449-0.95
			c0.149-0.25,0.6-0.2,0.8-0.2c0.85-0.05,1.75,0.1,2.8,0.45c1.05,0.3,2.5,1.05,3.051,1.9c0.55,0.8,0.1,1.55-0.601,1.8
			S133.192,107.21,132.492,106.46z"/>
		<path display="inline" d="M153.94,127.961c3.9-5.85,7.65-12.551,10.95-20.201c2.4,1.05,3.551,1.9,3.551,2.55
			c0,0.4-0.351,0.55-1,0.55c-0.351,0-0.601,0-0.801-0.05c-3.5,6.5-7.35,12.451-11.65,17.801l0.75-0.15c2.45-0.45,5.5-1.1,9.15-2
			c-0.899-1.8-1.899-3.3-3.2-4.7l0.801-0.75c4.35,3.2,6.55,6.1,6.55,8.7c0,1.25-0.55,1.85-1.55,1.85c-0.7,0-1.101-0.55-1.351-1.6
			c-0.149-0.5-0.399-1.25-0.75-2.3c-3.2,1.3-7.65,2.75-13.351,4.35c-0.2,1.15-0.45,1.7-0.8,1.7c-0.65,0-1.3-1.4-2.101-4.15
			c2.5-0.4,3.851-0.6,4.15-0.65L153.94,127.961z M159.841,97.709c2.75,1.05,4.1,1.9,4.1,2.6c0,0.4-0.649,0.65-1.949,0.8
			c-1.751,3.95-3.9,7.601-6.351,11c2.05,1.85,3.1,3.45,3.1,4.8c0,1.1-0.5,1.65-1.45,1.65c-0.55,0-1.05-0.5-1.5-1.55
			c-1.149-2.65-3.2-5.15-6.3-7.601l0.6-0.85c1.7,0.85,3.2,1.8,4.551,2.8C156.54,107.76,158.291,103.209,159.841,97.709z
			 M177.691,109.26c-0.199,6.05-0.95,11.201-2.45,15.351c-1.85,5.3-5.05,9.451-9.65,12.351l-0.7-0.9
			c4.601-3.95,7.65-9.15,9.001-15.801c0.65-2.9,1-6.5,1.15-10.801h-5.751l-0.5-1.1h6.301V96.959c2.9,0.05,4.4,0.4,4.4,1.1
			c0,0.4-0.601,0.8-1.75,1.2v8.851h6.75l1.8-2.15c1.801,1.5,2.7,2.5,2.7,2.9c0,0.2-0.149,0.4-0.35,0.5l-1.2,0.75
			c-0.05,12.901-0.7,20.751-1.95,23.501c-0.95,2-2.7,3.05-5.25,3.1c-0.101-0.9-0.45-1.55-1.351-1.95c-0.7-0.35-2.15-0.7-4.35-1.15
			v-1.25c2.3,0.4,4.25,0.65,5.95,0.65c1.649,0,2.7-0.85,3.05-2.5c0.9-4.25,1.3-11.351,1.3-21.251H177.691z"/>
		<path display="inline" d="M217.891,111.81c-1.3,2-2.899,3.95-4.75,6c1.551,1.6,2.301,3,2.301,4.15c0,1.05-0.5,1.6-1.45,1.6
			c-0.65,0-1.15-0.6-1.45-1.7c-0.55-1.9-1.75-3.85-3.65-5.8v21.051h-2.601V117.46c-1.7,4.35-3.85,8.4-6.45,12.15l-1.05-0.7
			c3.5-5.601,5.95-11.751,7.351-18.251h-6.45l-0.4-1.15h7v-7.4c-2.399,0.5-4.5,0.9-6.3,1.15l-0.45-1.05c5.25-1,9.65-2.65,13.101-4.8
			c2,1.15,3,2.05,3,2.55c0,0.3-0.3,0.4-0.8,0.4c-0.35,0-0.8-0.05-1.35-0.15c-1.45,0.5-3.051,0.9-4.601,1.3v8h2.55l1.9-3.15
			c0.9,1.1,1.7,2.2,2.4,3.35l-0.45,0.95h-6.4v4.05c1.3,0.6,2.4,1.35,3.351,2.25c4.2-5.351,7.25-12.101,9.2-20.151
			c2.8,0.7,4.2,1.4,4.2,2.1c0,0.35-0.65,0.65-2,0.9c-0.851,2.35-1.851,4.851-3.051,7.301h6.551l0.1-0.2
			c1.15-2.95,2.2-6.101,3.001-9.601c2.7,1,4.05,1.85,4.05,2.5c0,0.35-0.55,0.6-1.8,0.7c-1,2.05-2.351,4.25-3.95,6.601h5.7l2.05-2.75
			c0.9,0.75,1.801,1.8,2.75,3.05l-0.449,0.85h-9.101v7.101h3.35l2.101-2.85l0.6,0.7c0.601,0.6,1.3,1.4,1.95,2.4l-0.45,0.9h-7.55v7.5
			h3.35l2.15-2.75c0.2,0.25,0.35,0.35,0.45,0.45c0.7,0.7,1.45,1.6,2.15,2.5l-0.501,0.9h-7.6v8.05h5.45l2.3-3.05
			c1.101,1,2,2.1,2.8,3.2l-0.5,0.95h-19.001v2.85h-2.65V111.81z M220.541,108.26v7.101h6.351v-7.101H220.541z M220.541,116.51v7.5
			h6.351v-7.5H220.541z M220.541,125.111v8.05h6.351v-8.05H220.541z"/>
		<path display="inline" d="M284.192,99.709l1.75-2c1.85,1.4,2.8,2.35,2.8,2.8c0,0.25-0.1,0.4-0.399,0.6l-1.051,0.7v35.302h-2.649
			v-2.9H254.09v2.9h-2.649V98.209c0.05,0,0.399,0.2,1.1,0.45c0.3,0.15,1.05,0.5,2.05,1.05H284.192z M254.09,100.809v32.302h30.553
			v-32.302H254.09z M275.691,113.86l1.4-1.5c1.7,1.1,2.6,1.9,2.6,2.3c0,0.1-0.1,0.2-0.3,0.35l-1.05,0.7v4.6
			c0.3-0.4,0.6-0.85,0.9-1.5c1.899,1.05,2.8,1.85,2.8,2.35c0,0.35-0.25,0.45-0.85,0.45c-0.25,0-0.501,0-0.7-0.05
			c-1.2,1.05-2.551,2-4.101,2.85c3.851,1.4,5.75,2.9,5.75,4.3c0,0.9-0.35,1.35-1.199,1.35c-0.45,0-1.051-0.3-1.751-1
			c-1.85-1.85-4.649-3.55-8.5-5.15v8h-2.45v-8.851c-3.4,2.8-7.45,5.05-12.101,6.601l-0.601-1c5.251-2.1,9.351-4.95,12.401-8.551
			h-5.45v1.3h-2.45v-8.9c0.949,0.45,1.85,0.9,2.7,1.35H275.691z M268.241,110.11v-3.45h-9.751l-0.5-1.1h10.251v-3.7
			c2.7,0.05,4.05,0.35,4.05,0.95c0,0.3-0.55,0.7-1.6,1.05v1.7h5.9l1.9-2.35c1.1,0.95,1.949,1.8,2.6,2.6l-0.35,0.85h-10.051v3.45h7.5
			l1.95-2.3c0.9,0.75,1.801,1.6,2.7,2.55l-0.45,0.85H256.74l-0.5-1.1H268.241z M276.042,118.96v-3.95h-13.551v3.95H276.042z
			 M276.042,120.11h-4.9c0,0-0.15,0.15-0.45,0.5v2.15c1.5,0.3,2.95,0.75,4.45,1.2c1.05-1.1,2-2.101,2.851-3.15h-1.95V120.11z"/>
		<path display="inline" d="M82.941,115.26c-0.085-0.894-0.359-1.459-1.45-2.55c-1.45-1.45-2.75-2-4.551-2.2
			c-1.55-0.15-3.35,0.25-4.5,0.8c-1.25,0.55-3.122,0.989-4.45,1.75c-1.493,0.855-3.15,1.5-4.551,2.65c-1.5,1.25-3.35,1.95-4.899,1.9
			c-1.551,0-3.289-0.754-4.051-1.55c-1.271-1.328-1.148-3.514-1-3.95c0.15-0.44,0.494-1.097,1.45-1.2
			c0.771-0.083,1.65,0.35,2.7,0.35c1.05-0.05,2.609-0.15,2.85-0.15c1.718,0,3.822-0.284,5.001-0.8c1.313-0.575,3-1.6,4.8-2.35
			c1.851-0.8,3.95-1.55,6.301-1.6c2.45,0,4.9,1.1,6.55,2.65c1.501,1.4,2.4,3.1,2.65,5.601c0.25,2.4-0.35,4.6-1.85,6.75
			c-1.5,2.101-4.051,3.7-6.051,4.65c-1.95,0.9-4.2,1.9-6.45,2.45c-1.75,0.4-3.25,0.55-3.801,0.55c-0.55-0.05-0.899-0.2-0.899-0.45
			s0.25-0.55,0.8-0.6c0.5-0.05,1.05,0.05,3.15-0.55c2.15-0.55,4.55-1.7,6.3-2.65c1.65-0.9,3.551-2.85,4.501-4.25
			C82.441,119.161,83.088,116.804,82.941,115.26z"/>
	</g>
	<g>
		<path fill="#171717" d="M28.121,145.8h0.523v2.984h2.367v0.719h-2.367v4.695c0,0.406,0.097,0.718,0.289,0.934
			c0.192,0.216,0.438,0.324,0.734,0.324c0.354,0,0.656-0.164,0.906-0.492s0.396-0.87,0.438-1.625h0.523
			c-0.031,0.974-0.253,1.697-0.664,2.168c-0.411,0.472-0.945,0.707-1.602,0.707c-0.604,0-1.077-0.165-1.418-0.496
			c-0.341-0.331-0.512-0.764-0.512-1.301v-4.914h-1.273v-0.547c0.58-0.099,1.022-0.341,1.325-0.727
			C27.841,147.651,28.085,146.842,28.121,145.8z"/>
		<path fill="#171717" d="M38.341,153.347c0.323,0.901,0.694,1.525,1.113,1.871c0.419,0.347,0.937,0.52,1.551,0.52
			c0.567,0,1.004-0.124,1.309-0.371c0.305-0.247,0.457-0.561,0.457-0.941c0-0.219-0.057-0.41-0.168-0.574
			c-0.112-0.164-0.268-0.286-0.466-0.367c-0.198-0.081-0.713-0.199-1.542-0.355c-0.794-0.156-1.347-0.32-1.659-0.492
			s-0.557-0.409-0.731-0.711c-0.175-0.302-0.262-0.63-0.262-0.984c0-0.536,0.18-1.023,0.54-1.461
			c0.464-0.557,1.113-0.836,1.948-0.836c0.636,0,1.226,0.201,1.768,0.602l0.517-0.547h0.321l0.203,2.609h-0.523
			c-0.229-0.739-0.54-1.272-0.932-1.598c-0.392-0.325-0.874-0.488-1.448-0.488c-0.495,0-0.885,0.121-1.166,0.363
			c-0.282,0.242-0.423,0.538-0.423,0.887c0,0.308,0.131,0.563,0.392,0.766c0.255,0.208,0.757,0.373,1.503,0.493
			c0.865,0.146,1.429,0.269,1.69,0.369c0.427,0.156,0.758,0.397,0.993,0.722c0.234,0.325,0.352,0.722,0.352,1.19
			c0,0.646-0.254,1.192-0.763,1.64s-1.154,0.671-1.937,0.671c-0.725,0-1.397-0.239-2.018-0.719l-0.571,0.656h-0.415l-0.156-2.914
			H38.341z"/>
		<path fill="#171717" d="M52.412,148.651v4.852c0,0.594,0.149,1.052,0.448,1.375c0.299,0.323,0.685,0.484,1.158,0.484
			c0.582,0,1.076-0.235,1.484-0.707c0.408-0.471,0.612-1.061,0.612-1.77v-2.742c0-0.25-0.09-0.444-0.27-0.582
			c-0.18-0.138-0.524-0.215-1.035-0.23v-0.547l2.57-0.133v6.008c0,0.276,0.078,0.488,0.234,0.637s0.375,0.223,0.656,0.223h0.461
			v0.523l-2.461,0.055l-0.156-1.438c-0.437,0.516-0.876,0.904-1.318,1.164c-0.442,0.261-0.89,0.391-1.342,0.391
			c-0.66,0-1.214-0.221-1.661-0.664c-0.452-0.438-0.679-1.18-0.679-2.227v-3.18c0-0.281-0.112-0.495-0.336-0.641
			c-0.156-0.104-0.477-0.161-0.961-0.172v-0.547L52.412,148.651z"/>
		<path fill="#171717" d="M66.647,145.8h0.523v2.984h2.367v0.719h-2.367v4.695c0,0.406,0.097,0.718,0.289,0.934
			c0.192,0.216,0.438,0.324,0.734,0.324c0.354,0,0.656-0.164,0.906-0.492s0.396-0.87,0.438-1.625h0.523
			c-0.031,0.974-0.253,1.697-0.664,2.168c-0.411,0.472-0.945,0.707-1.602,0.707c-0.604,0-1.077-0.165-1.418-0.496
			c-0.341-0.331-0.512-0.764-0.512-1.301v-4.914h-1.273v-0.547c0.58-0.099,1.022-0.341,1.325-0.727
			C66.368,147.651,66.61,146.842,66.647,145.8z"/>
		<path fill="#171717" d="M76.867,153.347c0.323,0.901,0.694,1.525,1.113,1.871c0.419,0.347,0.937,0.52,1.551,0.52
			c0.567,0,1.004-0.124,1.309-0.371c0.305-0.247,0.457-0.561,0.457-0.941c0-0.219-0.056-0.41-0.168-0.574s-0.268-0.286-0.466-0.367
			c-0.198-0.081-0.713-0.199-1.542-0.355c-0.794-0.156-1.347-0.32-1.659-0.492s-0.557-0.409-0.731-0.711
			c-0.175-0.302-0.262-0.63-0.262-0.984c0-0.536,0.18-1.023,0.54-1.461c0.464-0.557,1.113-0.836,1.948-0.836
			c0.636,0,1.226,0.201,1.768,0.602l0.517-0.547h0.321l0.203,2.609h-0.523c-0.229-0.739-0.54-1.272-0.932-1.598
			c-0.392-0.325-0.874-0.488-1.448-0.488c-0.496,0-0.885,0.121-1.166,0.363c-0.282,0.242-0.423,0.538-0.423,0.887
			c0,0.308,0.13,0.563,0.392,0.766c0.256,0.208,0.756,0.373,1.502,0.493c0.866,0.146,1.43,0.269,1.691,0.369
			c0.427,0.156,0.758,0.397,0.993,0.722c0.234,0.325,0.352,0.722,0.352,1.19c0,0.646-0.254,1.192-0.763,1.64
			s-1.154,0.671-1.937,0.671c-0.725,0-1.397-0.239-2.019-0.719l-0.57,0.656H76.5l-0.156-2.914H76.867z"/>
		<path fill="#171717" d="M90.938,148.651v4.852c0,0.594,0.149,1.052,0.448,1.375c0.299,0.323,0.685,0.484,1.157,0.484
			c0.582,0,1.078-0.235,1.485-0.707c0.408-0.471,0.612-1.061,0.612-1.77v-2.742c0-0.25-0.09-0.444-0.27-0.582
			c-0.18-0.138-0.524-0.215-1.035-0.23v-0.547l2.57-0.133v6.008c0,0.276,0.078,0.488,0.234,0.637s0.375,0.223,0.656,0.223h0.461
			v0.523l-2.461,0.055l-0.156-1.438c-0.437,0.516-0.876,0.904-1.318,1.164c-0.442,0.261-0.889,0.391-1.342,0.391
			c-0.66,0-1.214-0.221-1.661-0.664c-0.452-0.438-0.679-1.18-0.679-2.227v-3.18c0-0.281-0.112-0.495-0.336-0.641
			c-0.156-0.104-0.477-0.161-0.961-0.172v-0.547L90.938,148.651z"/>
		<path fill="#171717" d="M105.986,148.675v7c0,1.021-0.278,1.867-0.836,2.539s-1.177,1.008-1.859,1.008
			c-0.344,0-0.609-0.085-0.797-0.254c-0.188-0.169-0.281-0.4-0.281-0.691c0-0.255,0.075-0.461,0.227-0.617s0.341-0.234,0.57-0.234
			c0.364,0,0.602,0.237,0.711,0.711c0.036,0.156,0.073,0.254,0.109,0.293s0.094,0.059,0.172,0.059c0.094,0,0.185-0.044,0.273-0.133
			c0.125-0.136,0.224-0.362,0.297-0.68c0.094-0.438,0.141-0.87,0.141-1.297v-6.164c0-0.286-0.089-0.505-0.266-0.656
			c-0.177-0.151-0.44-0.227-0.789-0.227h-0.664v-0.547L105.986,148.675z M105.205,144.401c0.255,0,0.466,0.082,0.633,0.246
			s0.25,0.371,0.25,0.621c0,0.255-0.083,0.466-0.25,0.633c-0.167,0.167-0.375,0.25-0.625,0.25c-0.239,0-0.448-0.087-0.625-0.262
			c-0.177-0.174-0.266-0.379-0.266-0.613s0.089-0.438,0.266-0.613C104.765,144.489,104.971,144.401,105.205,144.401z"/>
		<path fill="#171717" d="M112.878,148.784l2.914-0.086v6.297c0,0.172,0.042,0.294,0.125,0.367c0.12,0.104,0.271,0.156,0.453,0.156
			h0.828v0.586h-4.164v-0.586h0.773c0.229,0,0.397-0.056,0.504-0.168c0.106-0.112,0.16-0.274,0.16-0.488v-4.609
			c0-0.292-0.083-0.512-0.25-0.66s-0.414-0.223-0.742-0.223h-0.602V148.784z M114.909,144.417c0.234,0,0.44,0.089,0.617,0.266
			c0.177,0.177,0.266,0.386,0.266,0.625c0,0.234-0.086,0.438-0.258,0.609s-0.378,0.258-0.617,0.258s-0.446-0.087-0.621-0.262
			c-0.175-0.174-0.262-0.379-0.262-0.613s0.089-0.44,0.266-0.617C114.477,144.506,114.68,144.417,114.909,144.417z"/>
		<path fill="#171717" d="M124.524,151.862h3.164v1.195h-3.164V151.862z"/>
		<path fill="#171717" d="M135.101,144.55l2.797-0.133v7.992l2.38-2.073c0.229-0.203,0.344-0.38,0.344-0.531
			c0-0.129-0.067-0.23-0.203-0.303c-0.202-0.104-0.532-0.161-0.989-0.171v-0.547h3.898v0.547c-0.771,0.042-1.359,0.245-1.766,0.609
			l-1.683,1.489l2.729,3.753c0.167,0.224,0.456,0.336,0.867,0.336h0.406v0.586h-4v-0.586h0.398c0.297,0,0.496-0.026,0.598-0.078
			c0.102-0.052,0.152-0.114,0.152-0.188c0-0.073-0.026-0.146-0.078-0.218l-1.993-2.792l-1.062,0.939v1.852
			c0,0.151,0.05,0.263,0.148,0.336c0.141,0.099,0.336,0.148,0.586,0.148h0.508v0.586h-3.93v-0.586h0.633
			c0.261,0,0.453-0.055,0.578-0.164s0.188-0.255,0.188-0.438v-9.031c0-0.234-0.075-0.406-0.227-0.516
			c-0.219-0.156-0.513-0.234-0.883-0.234h-0.398V144.55z"/>
		<path fill="#171717" d="M149.609,148.784l2.914-0.086v6.297c0,0.172,0.042,0.294,0.125,0.367c0.12,0.104,0.271,0.156,0.453,0.156
			h0.828v0.586h-4.164v-0.586h0.773c0.229,0,0.397-0.056,0.504-0.168c0.106-0.112,0.16-0.274,0.16-0.488v-4.609
			c0-0.292-0.083-0.512-0.25-0.66s-0.414-0.223-0.742-0.223h-0.602V148.784z M151.641,144.417c0.234,0,0.44,0.089,0.617,0.266
			c0.177,0.177,0.266,0.386,0.266,0.625c0,0.234-0.086,0.438-0.258,0.609s-0.378,0.258-0.617,0.258s-0.446-0.087-0.621-0.262
			c-0.175-0.174-0.262-0.379-0.262-0.613s0.089-0.44,0.266-0.617C151.208,144.506,151.411,144.417,151.641,144.417z"/>
		<path fill="#171717" d="M159.829,148.784l2.43-0.148c0.099,0.458,0.172,0.995,0.219,1.609c0.328-0.531,0.715-0.93,1.16-1.195
			s0.949-0.398,1.512-0.398c0.484,0,0.891,0.095,1.219,0.285c0.328,0.19,0.591,0.491,0.789,0.902
			c0.198,0.412,0.297,0.873,0.297,1.383v3.563c0,0.266,0.06,0.455,0.18,0.566c0.12,0.112,0.32,0.168,0.602,0.168h0.516v0.586h-3.859
			v-0.586h0.367c0.344,0,0.583-0.055,0.719-0.164s0.203-0.273,0.203-0.492v-3.133c0-0.682-0.104-1.188-0.313-1.516
			c-0.292-0.469-0.734-0.703-1.328-0.703c-0.589,0-1.079,0.237-1.473,0.711c-0.394,0.474-0.59,1.091-0.59,1.852v2.711
			c0,0.266,0.062,0.455,0.184,0.566c0.122,0.112,0.324,0.168,0.605,0.168h0.508v0.586h-3.875v-0.586h0.508
			c0.255,0,0.449-0.052,0.582-0.156c0.133-0.104,0.199-0.234,0.199-0.391v-4.727c0-0.313-0.085-0.549-0.254-0.711
			c-0.169-0.161-0.413-0.242-0.73-0.242h-0.375V148.784z"/>
		<path fill="#171717" d="M178.791,144.55l2.859-0.133v10.016c0,0.391,0.074,0.669,0.223,0.836c0.148,0.167,0.371,0.25,0.668,0.25
			h0.508v0.586h-2.5l-0.188-1.492c-0.297,0.531-0.645,0.931-1.043,1.199c-0.398,0.269-0.845,0.402-1.34,0.402
			c-0.833,0-1.543-0.349-2.129-1.047c-0.586-0.698-0.879-1.62-0.879-2.766c0-1.239,0.375-2.229,1.125-2.969
			c0.589-0.578,1.266-0.867,2.031-0.867c0.469,0,0.89,0.117,1.262,0.352s0.696,0.589,0.973,1.063v-4.133
			c0-0.219-0.085-0.392-0.254-0.52c-0.169-0.127-0.434-0.191-0.793-0.191h-0.523V144.55z M178.338,149.214
			c-0.563,0-1.009,0.232-1.34,0.695c-0.331,0.464-0.496,1.245-0.496,2.344c0,1.193,0.169,2.033,0.508,2.52
			c0.339,0.487,0.773,0.73,1.305,0.73c0.567,0,1.054-0.272,1.457-0.816c0.403-0.544,0.605-1.34,0.605-2.387
			c0-0.989-0.216-1.768-0.648-2.336C179.354,149.464,178.89,149.214,178.338,149.214z"/>
		<path fill="#171717" d="M195.737,152.495h-5.242c0.026,1.115,0.234,1.901,0.625,2.359c0.448,0.516,1.019,0.773,1.711,0.773
			c1.021,0,1.841-0.581,2.461-1.742l0.508,0.219c-0.761,1.479-1.859,2.219-3.297,2.219c-0.979,0-1.804-0.354-2.473-1.063
			c-0.669-0.708-1.004-1.614-1.004-2.719c0-1.188,0.329-2.147,0.988-2.879c0.659-0.731,1.47-1.098,2.434-1.098
			c0.708,0,1.32,0.183,1.836,0.547c0.516,0.365,0.903,0.888,1.164,1.57C195.631,151.162,195.727,151.766,195.737,152.495z
			 M190.495,151.94h3.172c0.188,0,0.333-0.063,0.438-0.191c0.104-0.127,0.156-0.345,0.156-0.652c0-0.573-0.179-1.06-0.535-1.461
			c-0.356-0.401-0.777-0.602-1.262-0.602c-0.542,0-1.001,0.242-1.379,0.727S190.511,150.972,190.495,151.94z"/>
		<path fill="#171717" d="M201.793,148.784l2.633-0.133v2.961c0.281-0.974,0.62-1.711,1.016-2.211s0.886-0.75,1.469-0.75
			c0.396,0,0.712,0.121,0.949,0.363s0.355,0.566,0.355,0.973c0,0.328-0.079,0.583-0.238,0.766c-0.159,0.183-0.358,0.273-0.598,0.273
			c-0.234,0-0.423-0.078-0.566-0.234s-0.215-0.367-0.215-0.633c0-0.172,0.042-0.333,0.125-0.484
			c0.078-0.135,0.117-0.216,0.117-0.242c0-0.078-0.05-0.117-0.148-0.117c-0.214,0-0.456,0.125-0.727,0.375
			c-0.375,0.349-0.664,0.828-0.867,1.438c-0.313,0.948-0.469,1.706-0.469,2.273v1.57c0,0.177,0.063,0.313,0.188,0.406
			s0.339,0.141,0.641,0.141h0.93v0.586h-4.547v-0.586h0.727c0.245,0,0.43-0.048,0.555-0.145c0.125-0.096,0.188-0.212,0.188-0.348
			v-4.664c0-0.354-0.075-0.613-0.227-0.777s-0.367-0.246-0.648-0.246h-0.641V148.784z"/>
		<path fill="#171717" d="M219.661,149.198c0.521-0.526,1-0.789,1.438-0.789c0.261,0,0.477,0.083,0.648,0.25
			c0.172,0.167,0.258,0.37,0.258,0.609c0,0.193-0.059,0.353-0.176,0.48c-0.117,0.128-0.254,0.191-0.41,0.191
			c-0.297,0-0.497-0.182-0.602-0.547c-0.042-0.156-0.112-0.234-0.211-0.234c-0.177,0-0.37,0.117-0.578,0.352
			c0.224,0.308,0.378,0.574,0.461,0.801s0.125,0.47,0.125,0.73c0,0.453-0.109,0.853-0.328,1.199
			c-0.219,0.347-0.582,0.652-1.09,0.918s-0.993,0.398-1.457,0.398h-0.852c-0.604,0-1.005,0.063-1.203,0.188
			c-0.198,0.13-0.297,0.32-0.297,0.57c0,0.203,0.081,0.359,0.242,0.469s0.466,0.164,0.914,0.164l1.93-0.039
			c0.974,0,1.676,0.163,2.105,0.488c0.43,0.326,0.645,0.772,0.645,1.34c0,0.625-0.245,1.151-0.734,1.578
			c-0.683,0.604-1.7,0.906-3.055,0.906c-1.12,0-1.95-0.206-2.492-0.617c-0.427-0.323-0.641-0.685-0.641-1.086
			c0-0.308,0.137-0.589,0.41-0.844c0.273-0.255,0.733-0.445,1.379-0.57c-0.516-0.125-0.903-0.309-1.164-0.551
			s-0.391-0.543-0.391-0.902c0-0.333,0.105-0.624,0.316-0.871c0.211-0.247,0.577-0.459,1.098-0.637c-0.442-0.245-0.776-0.54-1-0.887
			c-0.224-0.346-0.336-0.743-0.336-1.191c0-0.708,0.278-1.302,0.836-1.781c0.558-0.479,1.281-0.719,2.172-0.719
			c0.364,0,0.716,0.052,1.055,0.156C219.016,148.826,219.344,148.985,219.661,149.198z M218.067,156.112
			c-0.958,0-1.642,0.133-2.051,0.398s-0.613,0.586-0.613,0.961c0,0.354,0.153,0.633,0.461,0.836
			c0.406,0.271,0.984,0.406,1.734,0.406c0.896,0,1.57-0.148,2.023-0.445s0.68-0.628,0.68-0.992c0-0.214-0.07-0.413-0.211-0.598
			c-0.141-0.185-0.364-0.326-0.672-0.422C219.111,156.16,218.661,156.112,218.067,156.112z M217.606,149.065
			c-0.464,0-0.847,0.171-1.148,0.512c-0.302,0.341-0.453,0.819-0.453,1.434c0,0.656,0.151,1.166,0.453,1.527
			c0.302,0.362,0.688,0.543,1.156,0.543s0.853-0.176,1.152-0.527s0.449-0.855,0.449-1.512c0-0.609-0.152-1.091-0.457-1.445
			C218.454,149.243,218.07,149.065,217.606,149.065z"/>
		<path fill="#171717" d="M235.42,155.3l0.281,0.438c-0.38,0.391-0.802,0.586-1.266,0.586c-0.354,0-0.652-0.097-0.895-0.289
			s-0.454-0.531-0.637-1.016c-0.495,0.521-0.93,0.869-1.305,1.043s-0.825,0.262-1.352,0.262c-0.75,0-1.32-0.162-1.711-0.484
			s-0.586-0.737-0.586-1.242c0-0.76,0.446-1.392,1.34-1.895c0.894-0.502,2.082-0.837,3.566-1.004v-1.109
			c0-0.396-0.159-0.734-0.477-1.016s-0.722-0.422-1.211-0.422c-0.453,0-0.844,0.094-1.172,0.281
			c-0.234,0.141-0.352,0.279-0.352,0.414c0,0.078,0.063,0.201,0.188,0.367c0.151,0.208,0.227,0.394,0.227,0.555
			c0,0.234-0.075,0.426-0.227,0.574s-0.349,0.223-0.594,0.223c-0.261,0-0.478-0.088-0.652-0.266
			c-0.175-0.177-0.262-0.403-0.262-0.68c0-0.516,0.29-0.987,0.871-1.414c0.581-0.427,1.343-0.641,2.285-0.641
			c0.87,0,1.534,0.188,1.992,0.563c0.458,0.38,0.688,0.841,0.688,1.383v4c0,0.354,0.058,0.615,0.172,0.781
			c0.114,0.172,0.263,0.258,0.445,0.258C234.982,155.55,235.196,155.467,235.42,155.3z M232.857,152.214
			c-1.323,0.183-2.261,0.479-2.813,0.891c-0.411,0.313-0.617,0.755-0.617,1.328c0,0.401,0.106,0.715,0.32,0.941
			s0.492,0.34,0.836,0.34c0.614,0,1.147-0.233,1.598-0.699c0.45-0.466,0.676-1.051,0.676-1.754V152.214z"/>
		<path fill="#171717" d="M241.507,148.784l2.633-0.133v2.961c0.281-0.974,0.62-1.711,1.016-2.211s0.886-0.75,1.469-0.75
			c0.396,0,0.712,0.121,0.949,0.363s0.355,0.566,0.355,0.973c0,0.328-0.079,0.583-0.238,0.766c-0.159,0.183-0.358,0.273-0.598,0.273
			c-0.234,0-0.423-0.078-0.566-0.234s-0.215-0.367-0.215-0.633c0-0.172,0.042-0.333,0.125-0.484
			c0.078-0.135,0.117-0.216,0.117-0.242c0-0.078-0.05-0.117-0.148-0.117c-0.214,0-0.456,0.125-0.727,0.375
			c-0.375,0.349-0.664,0.828-0.867,1.438c-0.313,0.948-0.469,1.706-0.469,2.273v1.57c0,0.177,0.063,0.313,0.188,0.406
			s0.339,0.141,0.641,0.141h0.93v0.586h-4.547v-0.586h0.727c0.245,0,0.43-0.048,0.555-0.145c0.125-0.096,0.188-0.212,0.188-0.348
			v-4.664c0-0.354-0.075-0.613-0.227-0.777s-0.367-0.246-0.648-0.246h-0.641V148.784z"/>
		<path fill="#171717" d="M255.695,145.8h0.523v2.984h2.367v0.719h-2.367v4.695c0,0.406,0.097,0.718,0.289,0.934
			c0.192,0.216,0.438,0.324,0.734,0.324c0.354,0,0.656-0.164,0.906-0.492s0.396-0.87,0.438-1.625h0.523
			c-0.031,0.974-0.253,1.697-0.664,2.168c-0.411,0.472-0.945,0.707-1.602,0.707c-0.604,0-1.077-0.165-1.418-0.496
			c-0.341-0.331-0.512-0.764-0.512-1.301v-4.914h-1.273v-0.547c0.58-0.099,1.022-0.341,1.325-0.727
			C255.415,147.651,255.659,146.842,255.695,145.8z"/>
		<path fill="#171717" d="M271.898,152.495h-5.242c0.026,1.115,0.234,1.901,0.625,2.359c0.448,0.516,1.019,0.773,1.711,0.773
			c1.021,0,1.841-0.581,2.461-1.742l0.508,0.219c-0.761,1.479-1.859,2.219-3.297,2.219c-0.979,0-1.804-0.354-2.473-1.063
			c-0.669-0.708-1.004-1.614-1.004-2.719c0-1.188,0.329-2.147,0.988-2.879c0.659-0.731,1.47-1.098,2.434-1.098
			c0.708,0,1.32,0.183,1.836,0.547c0.516,0.365,0.903,0.888,1.164,1.57C271.792,151.162,271.888,151.766,271.898,152.495z
			 M266.656,151.94h3.172c0.188,0,0.333-0.063,0.438-0.191c0.104-0.127,0.156-0.345,0.156-0.652c0-0.573-0.179-1.06-0.535-1.461
			c-0.356-0.401-0.777-0.602-1.262-0.602c-0.542,0-1.001,0.242-1.379,0.727S266.672,150.972,266.656,151.94z"/>
		<path fill="#171717" d="M278.071,148.784l2.43-0.148c0.099,0.458,0.172,0.995,0.219,1.609c0.328-0.531,0.715-0.93,1.16-1.195
			s0.949-0.398,1.512-0.398c0.484,0,0.891,0.095,1.219,0.285c0.328,0.19,0.591,0.491,0.789,0.902
			c0.198,0.412,0.297,0.873,0.297,1.383v3.563c0,0.266,0.06,0.455,0.18,0.566c0.12,0.112,0.32,0.168,0.602,0.168h0.516v0.586h-3.859
			v-0.586h0.367c0.344,0,0.583-0.055,0.719-0.164s0.203-0.273,0.203-0.492v-3.133c0-0.682-0.104-1.188-0.313-1.516
			c-0.292-0.469-0.734-0.703-1.328-0.703c-0.589,0-1.079,0.237-1.473,0.711c-0.394,0.474-0.59,1.091-0.59,1.852v2.711
			c0,0.266,0.062,0.455,0.184,0.566c0.122,0.112,0.324,0.168,0.605,0.168h0.508v0.586h-3.875v-0.586h0.508
			c0.255,0,0.449-0.052,0.582-0.156c0.133-0.104,0.199-0.234,0.199-0.391v-4.727c0-0.313-0.085-0.549-0.254-0.711
			c-0.169-0.161-0.413-0.242-0.73-0.242h-0.375V148.784z"/>
	</g>
</g>
<g id="logo">
	<g>
		<g>
			<g>
				<path fill="#171717" d="M147.239,28.918c0,0,0.412-4.427-4.033-5.895c-0.011-0.003-0.021-0.005-0.031-0.008
					c0.007-0.009,0.012-0.018,0.018-0.026c2.569-3.915-0.508-7.125-0.508-7.125s-4.17-1.544-6.737,2.371
					c-0.007,0.008-0.013,0.018-0.017,0.027c-0.007-0.008-0.015-0.016-0.021-0.024c-3.117-3.494-7.015-1.354-7.015-1.354
					s-2.425,3.423,0.295,6.823c-3.865,1.998-3.045,6.109-3.045,6.109s2.292,3.021,6.006,1.97c0.514,3.826,4.197,4.725,4.197,4.725
					s4.072-0.879,4.391-5.18C145.02,32.578,147.239,28.918,147.239,28.918z"/>
				<path fill="#FFFFFF" d="M138.668,23.963c-0.324,0.491-0.982,0.628-1.476,0.306c-0.491-0.322-0.628-0.982-0.304-1.473
					c0.32-0.492,0.98-0.628,1.472-0.306C138.853,22.813,138.989,23.472,138.668,23.963z"/>
				<circle fill="#FFFFFF" cx="133.696" cy="25.443" r="1.064"/>
				<circle fill="#FFFFFF" cx="137.398" cy="27.872" r="1.065"/>
			</g>
			<g>
				<path fill="#171717" d="M154.689,8.81c0,0-1.975-1.987-4.479-0.431c-0.006,0.004-0.012,0.008-0.018,0.011
					c-0.001-0.006-0.003-0.013-0.005-0.019c-0.854-2.821-3.648-2.631-3.648-2.631s-2.431,1.064-1.573,3.884
					c0.001,0.007,0.003-0.309,0.005-0.309c-0.005,0-0.012,0-0.02,0c-2.948,0-3.485,3.171-3.485,3.171s0.674,2.719,3.415,2.777
					c-0.594,2.674,1.725,4.021,1.725,4.021s2.386,0.153,3.377-2.066c2.056,1.295,3.977-0.102,3.977-0.102s1.219-2.311-0.73-4.201
					C155.562,11.349,154.689,8.81,154.689,8.81z"/>
				<circle fill="#FFFFFF" cx="148.191" cy="11.146" r="0.669"/>
				<circle fill="#FFFFFF" cx="147.542" cy="13.95" r="0.67"/>
				<circle fill="#FFFFFF" cx="150.209" cy="13.143" r="0.669"/>
			</g>
			<g>
				<path fill="#171717" stroke="#171717" stroke-linejoin="round" stroke-miterlimit="10" d="M165.609,2.418
					c0,0-1.526-1.202-3.108,0.121c-0.005,0.002,0.024-0.009,0.024-0.009c-0.001-0.003-0.005-0.008-0.005-0.012
					c-0.868-1.873-2.757-1.481-2.757-1.481s-1.52,1.188-0.651,3.06c0.003,0.005,0.005,0.009,0.007,0.013
					c-0.262,0.12-0.075,0.032-0.081,0.033c-2.03,0.353-2.17,2.325-2.17,2.325s0.701,1.713,2.606,1.485
					c-0.151,1.912,1.569,2.565,1.569,2.565s1.661-0.153,2.132-1.788c1.551,0.697,2.743-0.471,2.743-0.471s0.617-1.729-0.919-2.848
					C166.464,4.099,165.609,2.418,165.609,2.418z"/>
				<circle fill="#FFFFFF" stroke="#171717" stroke-linejoin="round" stroke-miterlimit="10" cx="161.334" cy="4.67" r="0.47"/>
				<circle fill="#FFFFFF" stroke="#171717" stroke-linejoin="round" stroke-miterlimit="10" cx="161.158" cy="6.678" r="0.469"/>
				<circle fill="#FFFFFF" stroke="#171717" stroke-linejoin="round" stroke-miterlimit="10" cx="162.927" cy="5.858" r="0.469"/>
			</g>
			<g>
				<path fill="#171717" d="M182.943,20.196c0,0-0.611-2.759-3.615-2.728c-0.006,0,0.037,0.014,0.037,0.014
					c0.002-0.005,0.003-0.012,0.004-0.019c0.748-2.909-1.738-4.208-1.738-4.208s-2.807-0.061-3.555,2.847
					c-0.003,0.007-0.003,0.014-0.006,0.021c-0.405-0.107-0.112-0.034-0.118-0.037c-2.615-1.475-4.588,0.62-4.588,0.62
					s-0.788,2.574,1.565,4.074c-1.931,2.013-0.593,4.336-0.593,4.336s2.012,1.358,4.048-0.05c1.103,2.215,3.525,1.997,3.525,1.997
					s2.286-1.377,1.589-4.054C182.357,22.878,182.943,20.196,182.943,20.196z"/>
				<path fill="#FFFFFF" d="M176.713,18.965c-0.094,0.365-0.467,0.585-0.832,0.492c-0.364-0.094-0.585-0.466-0.492-0.832
					c0.097-0.365,0.468-0.585,0.832-0.491C176.586,18.228,176.806,18.6,176.713,18.965z"/>
				<circle fill="#FFFFFF" cx="174.002" cy="20.894" r="0.683"/>
				<circle fill="#FFFFFF" cx="176.753" cy="21.6" r="0.683"/>
			</g>
			<g>
				<path fill="#171717" d="M169.647,56.852c0,0,1.612-3.64-1.743-6.151c-0.009-0.005-0.018-0.012-0.025-0.016
					c0.008-0.006,0.017-0.011,0.024-0.017c3.294-2.591,1.599-6.192,1.599-6.192s-3.102-2.497-6.395,0.094
					c-0.008,0.006-0.016,0.012-0.022,0.018c-0.005-0.009-0.007-0.017-0.012-0.027c-1.649-3.853-5.566-3.146-5.566-3.146
					s-3.032,2.215-1.693,5.874c-3.847,0.595-4.322,4.319-4.322,4.319s1.085,3.216,4.534,3.381c-0.651,3.393,2.217,5.205,2.217,5.205
					s3.707,0.414,5.202-3.146C166.724,59.326,169.647,56.852,169.647,56.852z"/>
				<circle fill="#FFFFFF" cx="163.196" cy="49.457" r="0.953"/>
				<circle fill="#FFFFFF" cx="159.145" cy="50.046" r="0.953"/>
				<circle fill="#FFFFFF" cx="161.595" cy="53.161" r="0.953"/>
			</g>
			<g>
				<path fill="#171717" d="M152.876,0c0,0-1.254,0.235-1.285,1.587c0,0.003,0.007-0.016,0.009-0.016
					c-0.005-0.001-0.007-0.002-0.01-0.003c-1.299-0.38-1.922,0.721-1.922,0.721s-0.069,1.263,1.231,1.644
					c0.003,0,0.005,0.001,0.008,0.002c-0.053,0.183-0.018,0.051-0.019,0.053c-0.702,1.156,0.21,2.076,0.21,2.076
					s1.149,0.393,1.858-0.645c0.879,0.9,1.946,0.332,1.946,0.332s0.641-0.885,0.036-1.824c1.016-0.464,0.952-1.558,0.952-1.558
					s-0.586-1.05-1.802-0.776C154.074,0.304,152.876,0,152.876,0z"/>
			</g>
			<g>
				<path fill="none" stroke="#171717" stroke-linejoin="round" stroke-miterlimit="10" d="M134.15,36.991
					c0,0-0.397-1.6-2.146-1.542c-0.004,0,0.015,0.006,0.015,0.006c0.001-0.002,0.003-0.007,0.005-0.011
					c0.431-1.694-0.778-2.426-0.778-2.426s-1.746,0-1.746,1.704c0,0.004,0,0.008,0,0.012c-1-0.056-0.351-0.018-0.354-0.02
					c-1.541-0.825-2.806,0.42-2.806,0.42s-0.495,1.509,0.895,2.353c-1.098,1.197-0.322,2.532-0.322,2.532s1.17,0.764,2.336-0.082
					c0.672,1.276,2.069,1.117,2.069,1.117s1.309-0.832,0.868-2.381C133.848,38.56,134.15,36.991,134.15,36.991z"/>
			</g>
			<g>
				<path fill="none" stroke="#171717" stroke-linejoin="round" stroke-miterlimit="10" d="M141.843,4.791
					c0,0-1.235-0.201-1.714,1.038c-0.001,0.002,0.013-0.013,0.013-0.013c-0.003-0.002-0.004-0.003-0.008-0.005
					c-1.072-0.783-2.013,0.026-2.013,0.026s-0.484,1.142,0.588,1.925c0.003,0.001,0.006,0.004,0.007,0.006
					c-0.112,0.149-0.032,0.041-0.033,0.043c-1.035,0.832-0.497,1.985-0.497,1.985s0.928,0.745,1.929,0.023
					c0.511,1.123,1.684,0.954,1.684,0.954s0.887-0.604,0.641-1.67c1.091-0.091,1.397-1.121,1.397-1.121s-0.19-1.164-1.404-1.316
					C142.848,5.47,141.843,4.791,141.843,4.791z"/>
			</g>
			<g>
				<path fill="#171717" d="M155.976,26.131c0,0,0.202-1.636-1.45-2.209c-0.003-0.001,0.014,0.011,0.014,0.012
					c0-0.004,0.003-0.007,0.006-0.01c1.012-1.427-0.121-2.646-0.121-2.646s-1.524-0.584-2.506,0.863
					c-0.003,0.003-0.004,0.008-0.006,0.011c-0.201-0.138-0.056-0.041-0.059-0.043c-1.144-1.323-2.636-0.563-2.636-0.563
					s-0.938,1.255,0.056,2.541c-1.453,0.724-1.179,2.26-1.179,2.26s0.836,1.14,2.23,0.769c0.171,1.432,1.538,1.789,1.538,1.789
					s1.525-0.305,1.67-1.91C155.126,27.485,155.976,26.131,155.976,26.131z"/>
			</g>
			<g>
				<path fill="#171717" d="M185.813,32.691c0,0,0.205-1.635-1.449-2.209c-0.002-0.001,0.014,0.011,0.014,0.011
					c0.002-0.002,0.003-0.006,0.006-0.009c1.012-1.427-0.12-2.646-0.12-2.646s-1.524-0.584-2.507,0.862
					c-0.001,0.004-0.002,0.008-0.005,0.011c-0.203-0.139-0.055-0.04-0.057-0.043c-1.146-1.323-2.638-0.563-2.638-0.563
					s-0.938,1.256,0.06,2.542c-1.456,0.723-1.179,2.26-1.179,2.26s0.833,1.14,2.227,0.768c0.169,1.432,1.541,1.789,1.541,1.789
					s1.522-0.305,1.668-1.91C184.965,34.046,185.813,32.691,185.813,32.691z"/>
			</g>
			<g>
				<path fill="none" stroke="#171717" stroke-linejoin="round" stroke-miterlimit="10" d="M166.488,34.124
					c0,0,0.293-2.369-2.099-3.2c-0.006-0.002,0.018,0.016,0.016,0.017c0.005-0.004,0.008-0.009,0.01-0.013
					c1.466-2.068-0.175-3.833-0.175-3.833s-2.207-0.846-3.629,1.25c-0.003,0.005-0.005,0.011-0.009,0.016
					c-0.291-0.201-0.079-0.059-0.082-0.063c-1.656-1.916-3.818-0.815-3.818-0.815s-1.357,1.82,0.082,3.681
					c-2.105,1.048-1.707,3.274-1.707,3.274s1.211,1.651,3.229,1.113c0.244,2.075,2.229,2.59,2.229,2.59s2.207-0.442,2.417-2.766
					C165.258,36.085,166.488,34.124,166.488,34.124z"/>
			</g>
			<g>
				<path fill="none" stroke="#171717" stroke-linejoin="round" stroke-miterlimit="10" d="M171.387,5.272
					c0,0-1.631,0.305-1.672,2.067c0,0.005,0.008-0.021,0.009-0.021c-0.003-0.001-0.006-0.003-0.012-0.003
					c-1.691-0.497-2.505,0.937-2.505,0.937s-0.092,1.646,1.601,2.144c0.003,0,0.009,0.001,0.013,0.003
					c-0.072,0.236-0.022,0.065-0.024,0.068c-0.919,1.506,0.271,2.706,0.271,2.706s1.494,0.514,2.422-0.838
					c1.144,1.174,2.533,0.436,2.533,0.436s0.837-1.154,0.052-2.377c1.323-0.604,1.243-2.029,1.243-2.029s-0.763-1.37-2.348-1.014
					C172.951,5.671,171.387,5.272,171.387,5.272z"/>
			</g>
			<g>
				<path fill="#171717" d="M166.449,18.697c0,0,0.001-2.386-2.475-2.92c-0.005-0.001,0.02,0.014,0.02,0.015
					c0.003-0.005,0.005-0.01,0.01-0.015c1.2-2.23-0.646-3.782-0.646-3.782s-2.292-0.569-3.448,1.684
					c-0.003,0.005-0.005,0.011-0.006,0.017c-0.315-0.163-0.086-0.048-0.091-0.052c-1.876-1.7-3.889-0.343-3.889-0.343
					s-1.126,1.972,0.532,3.644c-1.963,1.298-1.295,3.457-1.295,3.457s1.403,1.491,3.339,0.711c0.498,2.029,2.53,2.298,2.53,2.298
					s2.136-0.707,2.061-3.04C165.468,20.795,166.449,18.697,166.449,18.697z"/>
			</g>
			<g>
				<path fill="#171717" d="M140.868,49.068c0,0,1.041-2.147-0.957-3.706c-0.003-0.004,0.014,0.021,0.013,0.022
					c0.004-0.004,0.009-0.006,0.012-0.01c2.055-1.484,1.071-3.684,1.071-3.684s-1.815-1.512-3.838,0.013
					c-0.004,0.003-0.008,0.009-0.013,0.012c-0.213-0.284-0.057-0.08-0.06-0.086c-0.95-2.348-3.352-2.002-3.352-2.002
					s-1.872,1.283-1.109,3.51c-2.33,0.313-2.67,2.548-2.67,2.548s0.61,1.953,2.696,2.095c-0.437,2.042,1.273,3.17,1.273,3.17
					s2.232,0.294,3.182-1.838C139.07,50.529,140.868,49.068,140.868,49.068z"/>
			</g>
			<g>
				<path fill="#171717" d="M179.221,48.324c0,0,2.108-0.857,1.419-3.293c-0.002-0.005-0.004,0.285-0.004,0.285
					c0.005,0,0.01,0,0.015,0c2.533,0,3.039-2.602,3.039-2.602s-0.569-2.423-3.104-2.388c-0.004,0-0.011-0.062-0.017-0.062
					c-0.003-0.355,0.003-0.132,0.003-0.137c0.622-2.457-1.521-3.612-1.521-3.612s-2.27-0.079-2.97,2.169
					c-2.065-1.125-3.659,0.474-3.659,0.474s-0.659,1.937,0.938,3.282c-1.561,1.391-0.846,3.309-0.846,3.309s1.629,1.557,3.65,0.396
					C176.906,48.442,179.221,48.324,179.221,48.324z"/>
			</g>
			<g>
				<path fill="#171717" d="M149.789,42.61c0,0,1.748-1.623,0.454-3.801c-0.003-0.005,0.002,0.025,0.001,0.025
					c0.007-0.001,0.012-0.003,0.017-0.004c2.451-0.638,2.332-3.046,2.332-3.046s-1.145-2.068-3.583-1.379
					c-0.006,0.001-0.011,0.005-0.017,0.007c-0.094-0.342-0.021-0.096-0.021-0.102c-0.035-2.533-2.399-3.081-2.399-3.081
					s-2.21,0.517-2.306,2.87c-2.286-0.554-3.413,1.407-3.413,1.407s-0.136,2.042,1.755,2.929c-1.147,1.745,0.04,3.416,0.04,3.416
					s1.973,1.083,3.628-0.561C147.584,43.32,149.789,42.61,149.789,42.61z"/>
			</g>
			<g>
				<path fill="none" stroke="#171717" stroke-linejoin="round" stroke-miterlimit="10" d="M147.079,54.074
					c0,0-0.155-1.641-1.892-1.845c-0.004,0,0.016,0.008,0.015,0.01c0.001-0.005,0.002-0.007,0.005-0.011
					c0.679-1.612-0.689-2.558-0.689-2.558s-1.613-0.241-2.262,1.384c-0.002,0.003-0.002,0.007-0.002,0.012
					c-0.227-0.092-0.062-0.028-0.065-0.03c-1.402-1.045-2.695,0.02-2.695,0.02s-0.646,1.429,0.604,2.47
					c-1.265,1.02-0.664,2.46-0.664,2.46s1.062,0.932,2.342,0.271c0.475,1.361,1.89,1.413,1.89,1.413s1.423-0.626,1.217-2.224
					C146.541,55.58,147.079,54.074,147.079,54.074z"/>
			</g>
			<g>
				<path fill="#171717" d="M169.086,36.479c0,0-1.233-0.201-1.712,1.037c0,0.003,0.012-0.013,0.012-0.012
					c-0.003-0.001-0.004-0.003-0.006-0.005c-1.072-0.783-2.014,0.026-2.014,0.026s-0.483,1.142,0.588,1.925
					c0.003,0.002,0.005,0.003,0.007,0.005c-0.109,0.149-0.032,0.04-0.033,0.043c-1.033,0.832-0.498,1.985-0.498,1.985
					s0.93,0.745,1.93,0.023c0.511,1.123,1.685,0.954,1.685,0.954s0.887-0.603,0.642-1.67c1.09-0.091,1.396-1.121,1.396-1.121
					s-0.191-1.165-1.404-1.316C170.092,37.159,169.086,36.479,169.086,36.479z"/>
			</g>
			<g>
				<path fill="none" stroke="#171717" stroke-linejoin="round" stroke-miterlimit="10" d="M172.842,28.679
					c0,0-1.232-0.2-1.712,1.038c-0.002,0.002,0.012-0.013,0.012-0.013c-0.002-0.001-0.003-0.002-0.006-0.004
					c-1.073-0.783-2.015,0.025-2.015,0.025s-0.482,1.143,0.589,1.925c0.002,0.001,0.005,0.003,0.008,0.005
					c-0.111,0.15-0.032,0.041-0.036,0.043c-1.033,0.833-0.495,1.985-0.495,1.985s0.929,0.745,1.93,0.023
					c0.51,1.123,1.683,0.954,1.683,0.954s0.886-0.604,0.641-1.671c1.092-0.091,1.396-1.12,1.396-1.12s-0.189-1.165-1.401-1.317
					C173.847,29.359,172.842,28.679,172.842,28.679z"/>
			</g>
			<g>
				<path fill="#171717" d="M151.462,54.391c0,0-1.231-0.201-1.711,1.038c-0.001,0.002,0.013-0.013,0.014-0.013
					c-0.003-0.001-0.006-0.002-0.007-0.004c-1.072-0.783-2.014,0.026-2.014,0.026s-0.484,1.142,0.588,1.925
					c0.003,0.001,0.005,0.003,0.007,0.005c-0.11,0.15-0.032,0.042-0.034,0.043c-1.034,0.833-0.496,1.985-0.496,1.985
					s0.927,0.745,1.929,0.024c0.511,1.123,1.684,0.953,1.684,0.953s0.887-0.604,0.643-1.67c1.088-0.092,1.397-1.12,1.397-1.12
					s-0.191-1.165-1.406-1.316C152.47,55.07,151.462,54.391,151.462,54.391z"/>
			</g>
			<g>
				<path fill="#171717" d="M150.464,44.812c0,0-1.037-0.695-1.989,0.23c-0.002,0.002,0.017-0.006,0.017-0.006
					c0-0.002-0.003-0.005-0.004-0.008c-0.648-1.158-1.839-0.814-1.839-0.814s-0.916,0.837-0.269,1.995
					c0.001,0.002,0.003,0.004,0.005,0.008c-0.161,0.09-0.047,0.023-0.05,0.025c-1.286,0.326-1.277,1.598-1.277,1.598
					s0.534,1.063,1.743,0.824c-0.003,1.233,1.135,1.568,1.135,1.568s1.057-0.179,1.279-1.25c1.029,0.371,1.735-0.438,1.735-0.438
					s0.311-1.138-0.729-1.782C151.095,45.848,150.464,44.812,150.464,44.812z"/>
			</g>
			<g>
				<path fill="none" stroke="#171717" stroke-linejoin="round" stroke-miterlimit="10" d="M175.546,48.233
					c0,0-1.15-0.488-1.909,0.601c-0.002,0.002,0.015-0.01,0.015-0.01c-0.001-0.002-0.003-0.004-0.006-0.006
					c-0.855-1.016-1.961-0.453-1.961-0.453s-0.743,0.994,0.113,2.009c0.001,0.002,0.002,0.004,0.005,0.007
					c-0.142,0.119-0.042,0.032-0.044,0.033c-1.202,0.563-0.952,1.811-0.952,1.811s0.723,0.944,1.866,0.481
					c0.229,1.213,1.407,1.327,1.407,1.327s1.006-0.375,1.021-1.47c1.082,0.172,1.623-0.756,1.623-0.756s0.092-1.177-1.051-1.613
					C176.36,49.132,175.546,48.233,175.546,48.233z"/>
			</g>
			<g>
				<path fill="#171717" d="M134.36,9.642c0,0-1.164,0.94-0.886,2.264c0.001,0.003,0.003,0.41,0.003,0.41c-0.003,0-0.006,0-0.009,0
					c-1.353,0-1.707,0.714-1.707,0.714s0.222,1.033,1.573,1.106c0.003,0,0.006-0.106,0.01-0.105c-0.012,0.188-0.004,0-0.006,0.001
					c-0.421,1.287,0.681,1.947,0.681,1.947s1.207,0.107,1.661-1.066c1.061,0.676,1.969-0.128,1.969-0.128s0.423-1.011-0.381-1.787
					c0.882-0.685,0.571-1.736,0.571-1.736s-0.81-0.89-1.932-0.345C135.598,9.665,134.36,9.642,134.36,9.642z"/>
			</g>
		</g>
	</g>
</g>
<g id="ガイド">
</g>
</svg>
