<?xml version="1.0" encoding="utf-8"?>
<!-- Generator: Adobe Illustrator 16.0.3, SVG Export Plug-In . SVG Version: 6.00 Build 0)  -->
<!DOCTYPE svg PUBLIC "-//W3C//DTD SVG 1.0//EN" "http://www.w3.org/TR/2001/REC-SVG-20010904/DTD/svg10.dtd">
<svg version="1.0" xmlns="http://www.w3.org/2000/svg" xmlns:xlink="http://www.w3.org/1999/xlink" x="0px" y="0px"
	 width="402.999px" height="90px" viewBox="0 0 402.999 90" enable-background="new 0 0 402.999 90" xml:space="preserve">
<g id="text">
	<g>
		<path fill="#171717" d="M101.437,8.678c0.562-0.918,1.07-1.989,1.529-3.247c0.987,0.323,1.479,0.595,1.479,0.833
			c0,0.136-0.255,0.221-0.73,0.255c-0.545,0.799-1.123,1.496-1.733,2.159h2.805l0.576-0.714c0.716,0.663,1.088,1.088,1.088,1.258
			c0,0.051-0.067,0.119-0.221,0.17l-0.476,0.153c-0.425,0.51-0.9,0.986-1.427,1.411l-0.29-0.221
			c0.408-0.731,0.663-1.275,0.782-1.666H94.723c0,0.085,0,0.17,0,0.221c0,0.782-0.119,1.411-0.425,1.887
			c-0.221,0.357-0.477,0.527-0.731,0.527c-0.392,0-0.561-0.187-0.561-0.544c0-0.187,0.068-0.323,0.22-0.459
			c0.629-0.578,0.97-1.445,1.037-2.549l0.357,0.017c0.051,0.323,0.086,0.476,0.086,0.51H101.437z M100.791,13.08
			c0,0.119-0.222,0.238-0.646,0.357v0.901h4.352l0.815-1.071c0.375,0.357,0.714,0.731,1.021,1.173l-0.188,0.289h-5.949v3.229
			c0,0.765-0.543,1.173-1.647,1.19c0,0,0,0,0-0.017c0-0.272-0.12-0.442-0.374-0.578c-0.308-0.136-0.97-0.289-1.972-0.442v-0.408
			c1.139,0.119,2.005,0.17,2.566,0.17c0.355,0,0.526-0.153,0.526-0.459v-2.686h-6.017l-0.188-0.391h6.153v-1.802
			c0.118,0.017,0.374,0.068,0.816,0.153l0.084-0.051c0.696-0.442,1.309-0.901,1.854-1.411h-6.374l-0.171-0.391h6.596l0.629-0.629
			c0.747,0.578,1.104,0.952,1.104,1.088c0,0.085-0.067,0.136-0.237,0.17l-0.425,0.068c-0.697,0.459-1.547,0.901-2.584,1.326
			C100.706,12.927,100.791,13.012,100.791,13.08z M94.942,5.652c1.564,0.544,2.348,1.19,2.348,1.904
			c0,0.408-0.188,0.595-0.545,0.595c-0.221,0-0.392-0.17-0.526-0.493c-0.273-0.629-0.749-1.19-1.479-1.7L94.942,5.652z
			 M98.207,5.414c1.394,0.646,2.074,1.36,2.074,2.091c0,0.374-0.187,0.578-0.545,0.578c-0.271,0-0.441-0.187-0.526-0.544
			c-0.152-0.612-0.561-1.224-1.24-1.853L98.207,5.414z"/>
		<path fill="#171717" d="M111.961,11.822c-0.528,1.564-1.241,3.077-2.125,4.539l-0.341-0.238c1.123-2.091,1.921-4.352,2.432-6.799
			h-2.107l-0.12-0.391h2.262V5.55c0.968,0.034,1.479,0.187,1.479,0.425c0,0.102-0.204,0.221-0.611,0.357v2.601h0.815l0.73-1.02
			c0.322,0.357,0.612,0.714,0.884,1.122l-0.169,0.289h-2.261v1.632c1.172,0.884,1.767,1.717,1.767,2.431
			c0,0.374-0.153,0.578-0.476,0.578c-0.237,0-0.374-0.204-0.441-0.578c-0.12-0.527-0.408-1.139-0.85-1.836v7.734h-0.867V11.822z
			 M116.94,12.366l0.375-0.221c0.68,1.224,1.292,2.159,1.87,2.788c0.017-0.034,0.051-0.068,0.051-0.102
			c0.458-0.782,0.9-1.785,1.292-3.077c0.833,0.374,1.258,0.646,1.258,0.833c0,0.136-0.204,0.204-0.612,0.238
			c-0.324,0.85-0.8,1.768-1.445,2.72c1.004,1.037,2.329,1.921,3.96,2.601c-0.238,0.204-0.475,0.476-0.695,0.85
			c-1.43-0.731-2.652-1.666-3.69-2.822c-1.154,1.377-2.736,2.397-4.758,3.06l-0.238-0.357c1.903-0.782,3.364-1.904,4.436-3.366
			C118.131,14.61,117.52,13.556,116.94,12.366z M114.866,13.012c0.97-1.02,1.734-2.278,2.278-3.825
			c0.834,0.357,1.241,0.646,1.241,0.833c0,0.136-0.221,0.221-0.68,0.238c-0.578,1.19-1.428,2.193-2.566,3.026L114.866,13.012z
			 M118.726,8.219V5.567c0.986,0.034,1.479,0.17,1.479,0.391c0,0.136-0.204,0.272-0.629,0.408v1.853h2.228l0.764-1.003
			c0.308,0.289,0.629,0.646,1.003,1.088l-0.17,0.306h-7.988l-0.171-0.391H118.726z M120.153,9.222
			c1.037,0.51,1.837,1.054,2.413,1.615c0.478,0.459,0.715,0.85,0.715,1.173c0,0.391-0.17,0.595-0.511,0.595
			c-0.204,0-0.408-0.17-0.56-0.493c-0.425-0.918-1.174-1.785-2.245-2.584L120.153,9.222z"/>
		<path fill="#171717" d="M127.107,9.103c1.429,0.425,2.142,0.986,2.142,1.7c0,0.408-0.17,0.595-0.527,0.595
			c-0.238,0-0.408-0.119-0.476-0.374c-0.204-0.612-0.612-1.173-1.292-1.632L127.107,9.103z M131.391,8.491l-1.988,6.714
			l-0.067,0.204c-0.103,0.408-0.17,0.714-0.17,0.884c0,0.153,0.034,0.357,0.101,0.595c0.137,0.476,0.204,0.918,0.204,1.36
			c0,0.663-0.237,1.003-0.713,1.003c-0.375,0-0.562-0.17-0.562-0.527c0-0.017,0.017-0.221,0.067-0.612
			c0.069-0.425,0.103-0.799,0.103-1.122c0-0.952-0.425-1.496-1.274-1.632V14.95c0.271,0.051,0.492,0.068,0.646,0.068
			c0.459,0,0.765-0.187,0.935-0.544c0.68-1.394,1.462-3.468,2.329-6.238L131.391,8.491z M128.212,5.805
			c1.496,0.374,2.245,0.901,2.245,1.615c0,0.408-0.188,0.595-0.528,0.595c-0.221,0-0.391-0.17-0.509-0.476
			c-0.204-0.527-0.663-1.003-1.378-1.428L128.212,5.805z M135.878,12.264h2.855l0.833-1.122c0.341,0.323,0.698,0.714,1.071,1.173
			l-0.204,0.323h-4.69c-0.052,0.085-0.086,0.136-0.086,0.187c-0.662,1.547-1.411,2.992-2.244,4.334l0.443-0.017
			c1.631-0.068,3.178-0.255,4.64-0.408c-0.459-0.714-1.105-1.513-2.006-2.414l0.255-0.289c1.395,0.969,2.414,1.938,3.129,2.975
			c0.321,0.493,0.491,0.884,0.491,1.224c0,0.425-0.187,0.629-0.544,0.629c-0.202,0-0.39-0.221-0.56-0.663
			c-0.12-0.289-0.306-0.663-0.511-1.054c-2.073,0.374-4.386,0.714-6.969,1.037c-0.102,0.374-0.204,0.561-0.322,0.561
			c-0.204,0-0.408-0.493-0.613-1.496l1.683-0.051h0.374c0.732-1.496,1.292-3.009,1.666-4.556h-3.773l-0.152-0.374h4.335V8.933
			h-2.992l-0.12-0.391h3.112V5.618c1.054,0.034,1.563,0.153,1.563,0.391c0,0.136-0.221,0.289-0.663,0.459v2.074h2.245l0.696-1.037
			c0.288,0.255,0.612,0.646,1.002,1.122l-0.169,0.306h-3.774V12.264z"/>
		<path fill="#171717" d="M150.94,7.42c0,4.759,2.21,8.227,6.646,10.352c-0.408,0.289-0.713,0.595-0.884,0.901
			c-2.362-1.462-3.96-3.162-4.879-5.117c-0.476-1.054-0.815-2.261-1.003-3.621c-0.289,2.261-0.935,4.114-1.938,5.524
			c-1.071,1.496-2.702,2.635-4.86,3.468l-0.222-0.34c2.346-1.139,3.994-2.686,4.93-4.641c0.816-1.717,1.258-3.859,1.258-6.409V6.077
			c1.071,0.051,1.631,0.187,1.631,0.408c0,0.153-0.238,0.306-0.68,0.442V7.42z"/>
		<path fill="#171717" d="M171.374,6.774l0.596-0.731c0.662,0.51,0.986,0.833,0.986,0.969c0,0.051-0.052,0.102-0.153,0.187
			l-0.357,0.306v5.626h-0.935v-0.833h-3.383v2.482h4.454l0.867-1.156c0.441,0.408,0.832,0.816,1.154,1.241l-0.187,0.306h-6.289
			v4.114h-0.97v-4.114h-6.152l-0.222-0.391h6.374v-2.482h-3.313v0.952h-0.936V6.298c0.307,0.102,0.681,0.272,1.14,0.476H171.374z
			 M163.845,7.148v2.125h7.666V7.148H163.845z M171.511,11.924V9.664h-7.666v2.261H171.511z"/>
		<path fill="#171717" d="M179.909,12.842c-0.493,1.36-1.14,2.668-1.989,3.96l-0.356-0.221c1.07-1.955,1.836-4.046,2.294-6.29
			h-2.056l-0.152-0.391h2.26V7.42c-0.681,0.153-1.377,0.272-2.039,0.374l-0.154-0.374c1.734-0.374,3.146-0.935,4.25-1.666
			c0.646,0.425,0.97,0.731,0.97,0.918c0,0.102-0.086,0.136-0.255,0.136c-0.119,0-0.273-0.017-0.443-0.051
			c-0.406,0.153-0.866,0.255-1.325,0.408l-0.137,0.051v2.686h0.698l0.68-0.969c0.288,0.289,0.595,0.629,0.883,1.071l-0.187,0.289
			h-2.074v1.496c0.478,0.272,0.937,0.595,1.361,1.02c0.492,0.51,0.729,0.969,0.729,1.36c0,0.323-0.151,0.493-0.459,0.493
			c-0.237,0-0.407-0.187-0.543-0.578c-0.187-0.612-0.545-1.19-1.089-1.785v6.986h-0.866V12.842z M182.766,7.488
			c2.854-0.391,5.218-0.969,7.139-1.751c0.696,0.442,1.054,0.748,1.054,0.935c0,0.102-0.084,0.136-0.255,0.136
			c-0.103,0-0.288-0.017-0.562-0.068c-2.295,0.527-4.691,0.918-7.223,1.139L182.766,7.488z M183.378,19.285v-8.057
			c0.95,0.051,1.428,0.187,1.428,0.408c0,0.102-0.188,0.221-0.578,0.374v7.275H183.378z M183.683,8.167
			c1.156,0.799,1.733,1.564,1.733,2.295c0,0.408-0.187,0.612-0.543,0.612c-0.255,0-0.407-0.187-0.441-0.578
			c-0.086-0.697-0.408-1.411-1.004-2.091L183.683,8.167z M189.819,11.788l0.543-0.663c0.612,0.476,0.902,0.782,0.902,0.884
			c0,0.085-0.051,0.136-0.137,0.204l-0.357,0.238v6.833h-0.866v-1.156h-3.196v1.156h-0.884V11.38
			c0.358,0.119,0.68,0.255,0.953,0.408H189.819z M186.114,7.93c1.104,0.748,1.665,1.513,1.665,2.295
			c0,0.408-0.188,0.612-0.577,0.612c-0.238,0-0.374-0.221-0.425-0.663c-0.052-0.629-0.341-1.309-0.902-2.006L186.114,7.93z
			 M189.904,14.712v-2.55h-3.196v2.55H189.904z M189.904,15.086h-3.196v2.669h3.196V15.086z M188.476,11.058
			c0.511-1.122,0.919-2.346,1.258-3.655c0.902,0.34,1.361,0.612,1.361,0.833c0,0.136-0.221,0.238-0.646,0.238
			c-0.459,1.02-0.987,1.938-1.633,2.754L188.476,11.058z"/>
		<path fill="#171717" d="M206.054,7.352l0.612-0.73c0.629,0.493,0.953,0.815,0.953,0.952c0,0.085-0.069,0.136-0.17,0.204
			l-0.358,0.238v10.692h-0.917v-1.224h-9.162v1.376h-0.918V6.825c0.322,0.136,0.697,0.306,1.088,0.527H206.054z M197.012,7.726
			v4.335h4.063V7.726H197.012z M201.074,12.451h-4.063v4.641h4.063V12.451z M206.174,12.061V7.726h-4.217v4.335H206.174z
			 M206.174,17.092v-4.641h-4.217v4.641H206.174z"/>
		<path fill="#171717" d="M220.437,8.678c0.562-0.918,1.07-1.989,1.529-3.247c0.987,0.323,1.479,0.595,1.479,0.833
			c0,0.136-0.255,0.221-0.73,0.255c-0.545,0.799-1.123,1.496-1.733,2.159h2.805l0.576-0.714c0.716,0.663,1.088,1.088,1.088,1.258
			c0,0.051-0.067,0.119-0.221,0.17l-0.476,0.153c-0.425,0.51-0.9,0.986-1.427,1.411l-0.29-0.221
			c0.408-0.731,0.663-1.275,0.782-1.666h-10.098c0,0.085,0,0.17,0,0.221c0,0.782-0.118,1.411-0.424,1.887
			c-0.221,0.357-0.477,0.527-0.731,0.527c-0.392,0-0.561-0.187-0.561-0.544c0-0.187,0.068-0.323,0.22-0.459
			c0.629-0.578,0.97-1.445,1.037-2.549l0.357,0.017c0.051,0.323,0.086,0.476,0.086,0.51H220.437z M219.791,13.08
			c0,0.119-0.222,0.238-0.646,0.357v0.901h4.352l0.815-1.071c0.375,0.357,0.714,0.731,1.021,1.173l-0.188,0.289h-5.949v3.229
			c0,0.765-0.543,1.173-1.647,1.19c0,0,0,0,0-0.017c0-0.272-0.12-0.442-0.374-0.578c-0.308-0.136-0.97-0.289-1.972-0.442v-0.408
			c1.139,0.119,2.005,0.17,2.566,0.17c0.355,0,0.526-0.153,0.526-0.459v-2.686h-6.017l-0.188-0.391h6.153v-1.802
			c0.118,0.017,0.374,0.068,0.816,0.153l0.084-0.051c0.696-0.442,1.309-0.901,1.854-1.411h-6.374l-0.171-0.391h6.596l0.629-0.629
			c0.747,0.578,1.104,0.952,1.104,1.088c0,0.085-0.067,0.136-0.237,0.17l-0.425,0.068c-0.697,0.459-1.547,0.901-2.584,1.326
			C219.706,12.927,219.791,13.012,219.791,13.08z M213.942,5.652c1.564,0.544,2.348,1.19,2.348,1.904
			c0,0.408-0.188,0.595-0.545,0.595c-0.221,0-0.392-0.17-0.526-0.493c-0.273-0.629-0.749-1.19-1.479-1.7L213.942,5.652z
			 M217.207,5.414c1.394,0.646,2.073,1.36,2.073,2.091c0,0.374-0.186,0.578-0.544,0.578c-0.271,0-0.441-0.187-0.526-0.544
			c-0.152-0.612-0.561-1.224-1.24-1.853L217.207,5.414z"/>
		<path fill="#171717" d="M240.649,6.57l0.596-0.68c0.629,0.476,0.95,0.799,0.95,0.952c0,0.085-0.033,0.136-0.135,0.204
			l-0.357,0.238v12.001h-0.9v-0.986h-10.387v0.986h-0.9V6.06c0.017,0,0.137,0.068,0.374,0.153c0.102,0.051,0.356,0.17,0.697,0.357
			H240.649z M230.416,6.944v10.981h10.387V6.944H230.416z M237.759,11.38l0.478-0.51c0.577,0.374,0.884,0.646,0.884,0.782
			c0,0.034-0.034,0.068-0.104,0.119l-0.355,0.238v1.564c0.101-0.136,0.204-0.289,0.305-0.51c0.646,0.357,0.953,0.629,0.953,0.799
			c0,0.119-0.086,0.153-0.29,0.153c-0.084,0-0.169,0-0.238-0.017c-0.407,0.357-0.866,0.68-1.393,0.969
			c1.309,0.476,1.955,0.986,1.955,1.462c0,0.306-0.12,0.459-0.408,0.459c-0.154,0-0.358-0.102-0.596-0.34
			c-0.629-0.629-1.58-1.207-2.889-1.751v2.72h-0.833v-3.009c-1.157,0.952-2.533,1.717-4.113,2.244l-0.205-0.34
			c1.785-0.714,3.18-1.683,4.215-2.907h-1.852v0.442h-0.834v-3.026c0.323,0.153,0.629,0.306,0.919,0.459H237.759z M235.228,10.105
			V8.933h-3.315l-0.169-0.374h3.484V7.301c0.917,0.017,1.376,0.119,1.376,0.323c0,0.102-0.188,0.238-0.543,0.357v0.578h2.005
			l0.646-0.799c0.374,0.323,0.662,0.612,0.883,0.884l-0.119,0.289h-3.415v1.173h2.55l0.663-0.782
			c0.305,0.255,0.61,0.544,0.917,0.867l-0.153,0.289h-8.721l-0.169-0.374H235.228z M237.878,13.114v-1.343h-4.605v1.343H237.878z
			 M237.878,13.505h-1.666c0,0-0.051,0.051-0.151,0.17v0.731c0.509,0.102,1.002,0.255,1.513,0.408
			c0.355-0.374,0.68-0.714,0.968-1.071h-0.663V13.505z"/>
	</g>
	<g>
		<path fill="#171717" d="M124.735,43.522c0.055-1.404-0.108-3.456-1.566-4.914c-1.564-1.566-2.97-2.16-4.913-2.376
			c-1.675-0.162-3.619,0.27-4.859,0.864c-1.352,0.594-3.511,1.944-4.807,2.97c-1.404,0.972-3.403,2.7-4.914,3.942
			c-1.62,1.35-3.619,2.106-5.292,2.052c-1.674,0-3.457-0.918-4.374-1.674c-0.919-0.756-1.404-1.728-1.081-2.106
			c0.432-0.54,1.081-0.324,1.566-0.216c0.811,0.216,1.782,0.378,2.916,0.378c1.134-0.054,2.161-0.81,3.078-1.242
			c0.918-0.432,4.051-2.214,5.4-3.024c1.35-0.756,3.24-1.728,5.184-2.538c1.999-0.864,4.267-1.674,6.804-1.728
			c2.646,0,5.292,1.188,7.075,2.862c1.62,1.512,2.592,3.348,2.862,6.048c0.269,2.592-0.379,4.968-1.999,7.291
			c-1.619,2.268-4.373,3.996-6.534,5.022c-2.105,0.972-4.536,2.052-6.966,2.646c-1.89,0.432-3.51,0.594-4.104,0.594
			c-0.593-0.054-0.972-0.216-0.972-0.486s0.271-0.594,0.863-0.648c0.541-0.054,1.136,0.054,3.403-0.594
			c2.321-0.594,4.913-1.836,6.805-2.862c1.78-0.972,3.833-3.078,4.858-4.59C124.196,47.734,124.682,45.197,124.735,43.522z"/>
		<path fill="#171717" d="M178.735,43.522c0.055-1.404-0.108-3.456-1.566-4.914c-1.564-1.566-2.97-2.16-4.913-2.376
			c-1.675-0.162-3.619,0.27-4.859,0.864c-1.352,0.594-3.511,1.944-4.807,2.97c-1.404,0.972-3.403,2.7-4.915,3.942
			c-1.619,1.35-3.618,2.106-5.291,2.052c-1.674,0-3.457-0.918-4.374-1.674c-0.919-0.756-1.404-1.728-1.081-2.106
			c0.432-0.54,1.081-0.324,1.566-0.216c0.811,0.216,1.782,0.378,2.916,0.378c1.134-0.054,2.161-0.81,3.078-1.242
			c0.918-0.432,4.051-2.214,5.4-3.024c1.35-0.756,3.24-1.728,5.184-2.538c1.999-0.864,4.267-1.674,6.804-1.728
			c2.646,0,5.292,1.188,7.075,2.862c1.62,1.512,2.592,3.348,2.862,6.048c0.269,2.592-0.379,4.968-1.999,7.291
			c-1.619,2.268-4.373,3.996-6.534,5.022c-2.106,0.972-4.536,2.052-6.966,2.646c-1.891,0.432-3.51,0.594-4.104,0.594
			c-0.593-0.054-0.972-0.216-0.972-0.486s0.271-0.594,0.863-0.648c0.541-0.054,1.135,0.054,3.403-0.594
			c2.321-0.594,4.913-1.836,6.805-2.862c1.78-0.972,3.833-3.078,4.858-4.59C178.196,47.734,178.682,45.197,178.735,43.522z"/>
		<path fill="#171717" d="M206.652,37.096c0.162-1.782,0.541-5.022,0.541-6.102c0-1.08-0.757-2.268-0.972-2.7
			c-0.27-0.432-0.324-1.08,0.053-1.404c0.378-0.378,1.027-0.054,1.566,0.216c0.486,0.27,1.296,0.702,2.107,1.728
			c0.809,0.918,0.432,2.376,0.161,3.726c-0.324,1.404-0.973,3.942-1.241,5.346c-0.217,1.35-0.865,6.372-1.027,8.262
			c-0.215,1.836-0.539,5.076-0.215,7.506c0.323,2.43,1.457,4.158,2.861,5.508c1.403,1.35,4.104,1.944,5.724,1.836
			c1.675-0.054,3.565-0.54,4.753-1.134c1.08-0.594,3.509-1.836,4.859-2.7c1.35-0.81,3.457-2.322,4.267-2.97s2.106-1.836,2.43-2.052
			c0.271-0.324,0.648-0.432,0.919-0.27c0.162,0.216,0.215,0.594-0.055,0.864c-0.27,0.378-1.135,1.242-2.215,2.268
			c-1.079,0.972-3.4,3.024-6.263,5.13c-2.754,2.052-5.941,3.186-8.371,3.402c-2.483,0.27-5.454-0.594-7.236-1.89
			c-1.835-1.296-3.563-3.618-3.996-6.102c-0.485-2.538,0-5.67,0.162-7.668C205.682,45.898,206.491,38.771,206.652,37.096z
			 M226.903,38.338c-0.756-0.81-1.729-1.566-3.077-2.484c-0.433-0.27-0.703-0.648-0.433-1.08c0.108-0.216,0.594-0.162,0.863-0.162
			c0.865,0,1.837,0.27,2.971,0.648c1.08,0.432,2.699,1.296,3.187,2.16c0.539,0.918,0.054,1.782-0.703,1.998
			C228.902,39.634,227.714,39.148,226.903,38.338z M231.169,36.178c-0.755-0.972-1.674-1.566-3.293-2.268
			c-0.486-0.216-0.648-0.648-0.486-1.026c0.162-0.27,0.648-0.216,0.863-0.216c0.918-0.054,1.891,0.108,3.024,0.486
			c1.134,0.324,2.7,1.134,3.295,2.052c0.593,0.864,0.108,1.674-0.649,1.944C233.168,37.42,231.925,36.988,231.169,36.178z"/>
		<path fill="#171717" d="M255.415,57.239c4.212-6.318,8.262-13.554,11.826-21.816c2.592,1.134,3.834,2.052,3.834,2.754
			c0,0.432-0.377,0.594-1.08,0.594c-0.377,0-0.647,0-0.864-0.054c-3.779,7.02-7.938,13.446-12.582,19.225l0.81-0.162
			c2.647-0.486,5.94-1.188,9.883-2.16c-0.973-1.944-2.052-3.564-3.456-5.076l0.863-0.81c4.699,3.456,7.074,6.588,7.074,9.396
			c0,1.35-0.593,1.998-1.674,1.998c-0.755,0-1.188-0.594-1.458-1.728c-0.162-0.54-0.431-1.35-0.81-2.484
			c-3.456,1.404-8.263,2.97-14.419,4.698c-0.215,1.242-0.485,1.836-0.863,1.836c-0.701,0-1.404-1.512-2.268-4.482
			c2.7-0.432,4.158-0.648,4.482-0.702L255.415,57.239z M261.788,24.568c2.969,1.134,4.427,2.052,4.427,2.808
			c0,0.432-0.702,0.702-2.106,0.864c-1.89,4.266-4.211,8.208-6.856,11.88c2.213,1.998,3.347,3.726,3.347,5.184
			c0,1.188-0.539,1.782-1.564,1.782c-0.595,0-1.136-0.54-1.62-1.674c-1.243-2.862-3.457-5.562-6.806-8.208l0.648-0.918
			c1.837,0.918,3.457,1.944,4.914,3.024C258.223,35.422,260.112,30.508,261.788,24.568z M281.065,37.042
			c-0.217,6.534-1.025,12.096-2.646,16.578c-1.998,5.724-5.454,10.206-10.421,13.338l-0.757-0.972
			c4.969-4.266,8.262-9.882,9.72-17.064c0.703-3.132,1.081-7.02,1.242-11.664h-6.209l-0.541-1.188h6.804V23.758
			c3.133,0.054,4.753,0.432,4.753,1.188c0,0.432-0.648,0.864-1.891,1.296V35.8h7.291l1.944-2.322c1.943,1.62,2.915,2.7,2.915,3.132
			c0,0.216-0.162,0.432-0.378,0.54l-1.295,0.81c-0.055,13.932-0.757,22.41-2.107,25.38c-1.025,2.16-2.916,3.294-5.67,3.348
			c-0.108-0.972-0.486-1.674-1.458-2.106c-0.755-0.378-2.321-0.756-4.697-1.242v-1.35c2.483,0.432,4.589,0.702,6.426,0.702
			c1.782,0,2.916-0.918,3.294-2.7c0.973-4.59,1.404-12.258,1.404-22.95H281.065z"/>
		<path fill="#171717" d="M324.481,39.796c-1.404,2.16-3.133,4.266-5.13,6.48c1.673,1.728,2.483,3.24,2.483,4.482
			c0,1.134-0.54,1.728-1.566,1.728c-0.701,0-1.241-0.648-1.565-1.836c-0.595-2.052-1.89-4.158-3.942-6.264v22.734h-2.808V45.898
			c-1.835,4.698-4.158,9.072-6.967,13.123l-1.134-0.756c3.781-6.048,6.426-12.69,7.939-19.71h-6.967l-0.432-1.242h7.56V29.32
			c-2.593,0.54-4.859,0.972-6.805,1.242l-0.484-1.134c5.669-1.08,10.421-2.862,14.146-5.184c2.161,1.242,3.241,2.214,3.241,2.754
			c0,0.324-0.324,0.432-0.865,0.432c-0.377,0-0.863-0.054-1.457-0.162c-1.565,0.54-3.294,0.972-4.969,1.404v8.64h2.754l2.053-3.402
			c0.973,1.188,1.836,2.376,2.593,3.618l-0.487,1.026h-6.912v4.375c1.404,0.648,2.592,1.458,3.619,2.43
			c4.535-5.778,7.83-13.068,9.936-21.762c3.024,0.756,4.537,1.512,4.537,2.268c0,0.378-0.703,0.702-2.16,0.972
			c-0.919,2.538-1.999,5.238-3.295,7.884h7.074l0.107-0.216c1.242-3.186,2.377-6.588,3.24-10.368c2.916,1.08,4.374,1.998,4.374,2.7
			c0,0.378-0.593,0.648-1.944,0.756c-1.08,2.214-2.538,4.59-4.266,7.128h6.156l2.215-2.97c0.971,0.81,1.943,1.944,2.969,3.294
			l-0.486,0.918h-9.828v7.668h3.618l2.27-3.078l0.647,0.756c0.648,0.648,1.404,1.512,2.105,2.592l-0.485,0.972h-8.155v8.1h3.618
			l2.322-2.97c0.216,0.27,0.378,0.378,0.486,0.486c0.757,0.756,1.566,1.728,2.321,2.7l-0.538,0.972h-8.21v8.694h5.888l2.483-3.294
			c1.188,1.08,2.16,2.268,3.023,3.456l-0.539,1.026h-20.521v3.078h-2.862V39.796z M327.344,35.962v7.668h6.858v-7.668H327.344z
			 M327.344,44.873v8.1h6.858v-8.1H327.344z M327.344,54.161v8.694h6.858v-8.694H327.344z"/>
		<path fill="#171717" d="M396.085,26.728l1.892-2.16c1.997,1.512,3.022,2.538,3.022,3.024c0,0.27-0.107,0.432-0.431,0.648
			l-1.134,0.756v38.125h-2.863v-3.132h-32.994v3.132h-2.862V25.108c0.054,0,0.433,0.216,1.188,0.486
			c0.325,0.162,1.136,0.54,2.216,1.134H396.085z M363.577,27.917v34.884h32.994V27.917H363.577z M386.906,42.01l1.511-1.62
			c1.836,1.188,2.81,2.052,2.81,2.484c0,0.108-0.108,0.216-0.324,0.378l-1.134,0.756v4.968c0.322-0.432,0.646-0.918,0.971-1.62
			c2.053,1.134,3.025,1.998,3.025,2.538c0,0.378-0.271,0.486-0.92,0.486c-0.27,0-0.538,0-0.755-0.054
			c-1.296,1.134-2.755,2.16-4.429,3.078c4.158,1.512,6.211,3.132,6.211,4.644c0,0.972-0.378,1.458-1.297,1.458
			c-0.485,0-1.133-0.324-1.89-1.08c-1.997-1.998-5.021-3.834-9.18-5.562v8.64h-2.646v-9.558c-3.674,3.024-8.047,5.454-13.068,7.128
			l-0.648-1.08c5.67-2.268,10.098-5.346,13.392-9.234h-5.887v1.404h-2.646v-9.612c1.027,0.486,1.999,0.972,2.916,1.458H386.906z
			 M378.86,37.96v-3.726h-10.531l-0.539-1.188h11.07V29.05c2.916,0.054,4.373,0.378,4.373,1.026c0,0.324-0.594,0.756-1.728,1.134
			v1.836h6.371l2.052-2.538c1.189,1.026,2.106,1.944,2.809,2.808l-0.377,0.918h-10.854v3.726h8.101l2.104-2.484
			c0.974,0.81,1.945,1.728,2.916,2.754l-0.485,0.918h-27.702l-0.541-1.188H378.86z M387.284,47.519v-4.266h-14.636v4.266H387.284z
			 M387.284,48.761h-5.293c0,0-0.162,0.162-0.485,0.54v2.322c1.62,0.324,3.187,0.81,4.806,1.296c1.135-1.188,2.16-2.268,3.078-3.402
			h-2.105V48.761z"/>
	</g>
	<g>
		<path fill="#171717" d="M105.624,75.564h0.557v3.171h2.514v0.764h-2.514v4.989c0,0.432,0.102,0.762,0.306,0.992
			c0.205,0.229,0.466,0.344,0.78,0.344c0.377,0,0.698-0.174,0.963-0.523c0.266-0.349,0.421-0.924,0.465-1.727h0.556
			c-0.033,1.035-0.268,1.803-0.705,2.304c-0.438,0.5-1.004,0.751-1.7,0.751c-0.643,0-1.146-0.176-1.508-0.527
			c-0.362-0.351-0.543-0.812-0.543-1.382v-5.221h-1.354v-0.581c0.617-0.105,1.087-0.362,1.408-0.772
			C105.327,77.532,105.585,76.671,105.624,75.564z"/>
		<path fill="#171717" d="M116.482,83.583c0.343,0.958,0.737,1.62,1.184,1.988c0.445,0.368,0.995,0.552,1.646,0.552
			c0.604,0,1.068-0.131,1.391-0.394c0.325-0.263,0.487-0.597,0.487-1c0-0.232-0.062-0.436-0.18-0.61
			c-0.12-0.175-0.285-0.305-0.495-0.391c-0.211-0.085-0.757-0.211-1.638-0.377c-0.843-0.166-1.432-0.34-1.763-0.523
			c-0.333-0.183-0.592-0.435-0.776-0.755c-0.187-0.321-0.28-0.669-0.28-1.046c0-0.57,0.191-1.087,0.574-1.552
			c0.494-0.592,1.183-0.888,2.07-0.888c0.676,0,1.303,0.213,1.879,0.639l0.549-0.581h0.34l0.217,2.772h-0.556
			c-0.245-0.786-0.574-1.352-0.99-1.697c-0.416-0.346-0.93-0.519-1.538-0.519c-0.528,0-0.941,0.128-1.239,0.386
			c-0.3,0.257-0.449,0.571-0.449,0.942c0,0.327,0.138,0.598,0.416,0.813c0.271,0.222,0.803,0.396,1.597,0.524
			c0.92,0.156,1.518,0.286,1.796,0.392c0.454,0.166,0.805,0.422,1.055,0.768s0.375,0.767,0.375,1.265
			c0,0.686-0.271,1.267-0.812,1.742s-1.227,0.713-2.057,0.713c-0.771,0-1.486-0.254-2.145-0.764l-0.607,0.697h-0.439l-0.167-3.096
			H116.482z"/>
		<path fill="#171717" d="M131.433,78.594v5.155c0,0.631,0.159,1.118,0.477,1.461c0.318,0.343,0.728,0.515,1.23,0.515
			c0.618,0,1.144-0.25,1.577-0.751c0.435-0.5,0.651-1.127,0.651-1.88V80.18c0-0.266-0.096-0.472-0.286-0.619
			c-0.191-0.146-0.558-0.228-1.101-0.245v-0.581l2.73-0.141v6.383c0,0.293,0.083,0.519,0.25,0.676
			c0.166,0.158,0.398,0.237,0.696,0.237h0.491v0.556l-2.616,0.058l-0.165-1.527c-0.465,0.548-0.932,0.96-1.401,1.237
			c-0.469,0.277-0.944,0.415-1.426,0.415c-0.7,0-1.29-0.235-1.765-0.706c-0.481-0.465-0.721-1.253-0.721-2.366V80.18
			c0-0.299-0.119-0.526-0.357-0.681c-0.166-0.111-0.507-0.171-1.021-0.183v-0.581L131.433,78.594z"/>
		<path fill="#171717" d="M146.559,75.564h0.557v3.171h2.516v0.764h-2.516v4.989c0,0.432,0.102,0.762,0.308,0.992
			c0.205,0.229,0.464,0.344,0.78,0.344c0.375,0,0.696-0.174,0.963-0.523c0.266-0.349,0.421-0.924,0.465-1.727h0.556
			c-0.033,1.035-0.268,1.803-0.705,2.304c-0.438,0.5-1.004,0.751-1.702,0.751c-0.643,0-1.144-0.176-1.506-0.527
			c-0.362-0.351-0.545-0.812-0.545-1.382v-5.221h-1.354v-0.581c0.618-0.105,1.087-0.362,1.408-0.772
			C146.262,77.532,146.52,76.671,146.559,75.564z"/>
		<path fill="#171717" d="M157.416,83.583c0.343,0.958,0.737,1.62,1.183,1.988c0.446,0.368,0.996,0.552,1.647,0.552
			c0.604,0,1.067-0.131,1.391-0.394c0.325-0.263,0.487-0.597,0.487-1c0-0.232-0.062-0.436-0.18-0.61
			c-0.12-0.175-0.285-0.305-0.495-0.391c-0.21-0.085-0.757-0.211-1.638-0.377c-0.843-0.166-1.431-0.34-1.763-0.523
			c-0.333-0.183-0.592-0.435-0.776-0.755c-0.187-0.321-0.279-0.669-0.279-1.046c0-0.57,0.19-1.087,0.573-1.552
			c0.494-0.592,1.183-0.888,2.07-0.888c0.676,0,1.302,0.213,1.879,0.639l0.548-0.581h0.341l0.217,2.772h-0.556
			c-0.245-0.786-0.575-1.352-0.99-1.697c-0.416-0.346-0.93-0.519-1.539-0.519c-0.527,0-0.94,0.128-1.238,0.386
			c-0.3,0.257-0.449,0.571-0.449,0.942c0,0.327,0.138,0.598,0.416,0.813c0.271,0.222,0.803,0.396,1.597,0.524
			c0.92,0.156,1.518,0.286,1.796,0.392c0.454,0.166,0.805,0.422,1.055,0.768s0.375,0.767,0.375,1.265
			c0,0.686-0.271,1.267-0.812,1.742s-1.227,0.713-2.057,0.713c-0.771,0-1.486-0.254-2.145-0.764l-0.607,0.697h-0.439l-0.167-3.096
			H157.416z"/>
		<path fill="#171717" d="M172.368,78.594v5.155c0,0.631,0.159,1.118,0.477,1.461c0.316,0.343,0.727,0.515,1.229,0.515
			c0.618,0,1.145-0.25,1.578-0.751c0.434-0.5,0.65-1.127,0.65-1.88V80.18c0-0.266-0.096-0.472-0.287-0.619
			c-0.191-0.146-0.558-0.228-1.1-0.245v-0.581l2.731-0.141v6.383c0,0.293,0.082,0.519,0.248,0.676
			c0.166,0.158,0.399,0.237,0.698,0.237h0.488v0.556l-2.613,0.058l-0.166-1.527c-0.464,0.548-0.932,0.96-1.4,1.237
			c-0.47,0.277-0.945,0.415-1.427,0.415c-0.701,0-1.289-0.235-1.765-0.706c-0.481-0.465-0.721-1.253-0.721-2.366V80.18
			c0-0.299-0.12-0.526-0.357-0.681c-0.166-0.111-0.507-0.171-1.021-0.183v-0.581L172.368,78.594z"/>
		<path fill="#171717" d="M188.356,78.619v7.438c0,1.084-0.296,1.984-0.89,2.698c-0.592,0.714-1.25,1.071-1.974,1.071
			c-0.365,0-0.648-0.09-0.849-0.27c-0.199-0.18-0.299-0.424-0.299-0.734c0-0.271,0.082-0.49,0.241-0.656
			c0.161-0.166,0.362-0.249,0.607-0.249c0.387,0,0.638,0.252,0.755,0.755c0.038,0.166,0.076,0.27,0.116,0.312
			c0.038,0.041,0.1,0.062,0.183,0.062c0.099,0,0.196-0.047,0.289-0.141c0.133-0.144,0.238-0.385,0.316-0.722
			c0.1-0.465,0.149-0.924,0.149-1.378v-6.549c0-0.304-0.095-0.537-0.282-0.697c-0.188-0.161-0.468-0.241-0.839-0.241h-0.705v-0.581
			L188.356,78.619z M187.525,74.079c0.272,0,0.495,0.087,0.673,0.262c0.177,0.174,0.266,0.394,0.266,0.66
			c0,0.271-0.089,0.495-0.266,0.672c-0.178,0.177-0.399,0.266-0.665,0.266c-0.254,0-0.476-0.093-0.663-0.278
			c-0.188-0.185-0.281-0.402-0.281-0.651s0.094-0.466,0.281-0.651C187.058,74.171,187.277,74.079,187.525,74.079z"/>
		<path fill="#171717" d="M195.678,78.735l3.097-0.091v6.69c0,0.183,0.045,0.313,0.133,0.39c0.127,0.111,0.288,0.166,0.482,0.166
			h0.88v0.623h-4.425v-0.623h0.821c0.243,0,0.423-0.06,0.536-0.178c0.113-0.119,0.169-0.292,0.169-0.519v-4.897
			c0-0.31-0.088-0.543-0.265-0.702c-0.178-0.157-0.44-0.236-0.789-0.236h-0.64V78.735z M197.837,74.095
			c0.25,0,0.467,0.094,0.656,0.282c0.188,0.188,0.281,0.41,0.281,0.664c0,0.249-0.091,0.465-0.274,0.647
			c-0.181,0.183-0.4,0.274-0.655,0.274c-0.254,0-0.475-0.093-0.659-0.278c-0.187-0.186-0.278-0.403-0.278-0.652
			s0.094-0.468,0.283-0.656C197.378,74.189,197.594,74.095,197.837,74.095z"/>
		<path fill="#171717" d="M208.053,82.006h3.363v1.27h-3.363V82.006z"/>
		<path fill="#171717" d="M219.291,74.236l2.971-0.141v8.492l2.529-2.203c0.243-0.216,0.366-0.404,0.366-0.564
			c0-0.138-0.072-0.245-0.217-0.322c-0.215-0.11-0.565-0.17-1.051-0.182v-0.581h4.143v0.581c-0.82,0.044-1.445,0.26-1.877,0.647
			l-1.786,1.582l2.899,3.988c0.176,0.238,0.484,0.357,0.922,0.357h0.431v0.623h-4.25v-0.623h0.424c0.315,0,0.525-0.028,0.634-0.083
			c0.107-0.055,0.162-0.122,0.162-0.199c0-0.078-0.028-0.155-0.084-0.232l-2.116-2.966l-1.129,0.998v1.967
			c0,0.161,0.054,0.279,0.158,0.357c0.149,0.105,0.358,0.158,0.624,0.158h0.538v0.623h-4.175v-0.623h0.672
			c0.277,0,0.482-0.058,0.615-0.174s0.199-0.271,0.199-0.465v-9.596c0-0.249-0.081-0.432-0.24-0.548
			c-0.233-0.166-0.546-0.249-0.938-0.249h-0.424V74.236z"/>
		<path fill="#171717" d="M234.706,78.735l3.097-0.091v6.69c0,0.183,0.043,0.313,0.133,0.39c0.126,0.111,0.288,0.166,0.48,0.166
			h0.88v0.623h-4.425v-0.623h0.823c0.242,0,0.421-0.06,0.534-0.178c0.113-0.119,0.171-0.292,0.171-0.519v-4.897
			c0-0.31-0.088-0.543-0.267-0.702c-0.176-0.157-0.438-0.236-0.788-0.236h-0.639V78.735z M236.864,74.095
			c0.25,0,0.468,0.094,0.655,0.282c0.188,0.188,0.283,0.41,0.283,0.664c0,0.249-0.091,0.465-0.274,0.647
			c-0.183,0.183-0.4,0.274-0.655,0.274s-0.475-0.093-0.661-0.278c-0.185-0.186-0.278-0.403-0.278-0.652s0.095-0.468,0.283-0.656
			C236.404,74.189,236.62,74.095,236.864,74.095z"/>
		<path fill="#171717" d="M245.565,78.735l2.58-0.158c0.105,0.487,0.183,1.057,0.232,1.71c0.35-0.564,0.76-0.988,1.233-1.27
			s1.009-0.423,1.605-0.423c0.516,0,0.946,0.101,1.295,0.303c0.35,0.202,0.629,0.522,0.838,0.959
			c0.212,0.437,0.316,0.927,0.316,1.469v3.785c0,0.282,0.063,0.483,0.191,0.602c0.126,0.119,0.341,0.178,0.64,0.178h0.547v0.623
			h-4.1v-0.623h0.389c0.366,0,0.62-0.058,0.764-0.174s0.216-0.291,0.216-0.523v-3.329c0-0.725-0.109-1.262-0.331-1.61
			c-0.311-0.498-0.781-0.747-1.412-0.747c-0.625,0-1.146,0.252-1.563,0.755c-0.419,0.503-0.628,1.159-0.628,1.967v2.88
			c0,0.282,0.066,0.483,0.196,0.602c0.129,0.119,0.345,0.178,0.643,0.178h0.54v0.623h-4.117v-0.623h0.538
			c0.271,0,0.478-0.055,0.62-0.166c0.14-0.111,0.21-0.249,0.21-0.415v-5.022c0-0.332-0.089-0.584-0.269-0.755
			c-0.181-0.171-0.439-0.257-0.775-0.257h-0.398V78.735z"/>
		<path fill="#171717" d="M265.712,74.236l3.037-0.141v10.642c0,0.415,0.079,0.711,0.237,0.888s0.395,0.266,0.709,0.266h0.54v0.623
			h-2.657l-0.199-1.585c-0.313,0.564-0.685,0.989-1.106,1.274c-0.424,0.285-0.898,0.428-1.424,0.428
			c-0.887,0-1.641-0.371-2.262-1.112c-0.623-0.742-0.934-1.721-0.934-2.938c0-1.317,0.398-2.369,1.195-3.154
			c0.625-0.614,1.343-0.921,2.158-0.921c0.498,0,0.943,0.125,1.339,0.374s0.741,0.625,1.033,1.129v-4.391
			c0-0.232-0.089-0.417-0.269-0.552c-0.18-0.135-0.461-0.203-0.842-0.203h-0.557V74.236z M265.229,79.192
			c-0.598,0-1.072,0.246-1.423,0.739c-0.353,0.493-0.527,1.323-0.527,2.49c0,1.267,0.181,2.16,0.54,2.677
			c0.358,0.517,0.821,0.776,1.387,0.776c0.602,0,1.118-0.289,1.547-0.868c0.43-0.578,0.645-1.423,0.645-2.536
			c0-1.051-0.231-1.879-0.69-2.482C266.31,79.458,265.816,79.192,265.229,79.192z"/>
		<path fill="#171717" d="M283.717,82.678h-5.569c0.027,1.184,0.25,2.02,0.664,2.507c0.476,0.548,1.082,0.822,1.817,0.822
			c1.086,0,1.957-0.617,2.616-1.851l0.538,0.232c-0.808,1.572-1.976,2.357-3.503,2.357c-1.04,0-1.915-0.376-2.627-1.129
			c-0.711-0.752-1.066-1.715-1.066-2.889c0-1.262,0.35-2.281,1.05-3.059c0.7-0.778,1.563-1.167,2.587-1.167
			c0.751,0,1.401,0.194,1.95,0.581c0.547,0.387,0.959,0.943,1.237,1.668C283.604,81.262,283.707,81.903,283.717,82.678z
			 M278.147,82.089h3.371c0.198,0,0.354-0.068,0.464-0.204c0.11-0.135,0.167-0.366,0.167-0.693c0-0.609-0.191-1.126-0.57-1.552
			s-0.824-0.639-1.34-0.639c-0.576,0-1.064,0.257-1.465,0.772C278.372,80.288,278.165,81.06,278.147,82.089z"/>
		<path fill="#171717" d="M290.151,78.735l2.797-0.141v3.146c0.299-1.035,0.659-1.818,1.08-2.349
			c0.42-0.531,0.939-0.797,1.561-0.797c0.419,0,0.756,0.129,1.007,0.386c0.253,0.258,0.378,0.602,0.378,1.034
			c0,0.349-0.083,0.62-0.253,0.813c-0.168,0.194-0.38,0.291-0.634,0.291c-0.25,0-0.45-0.083-0.604-0.249
			c-0.151-0.166-0.227-0.39-0.227-0.672c0-0.183,0.043-0.354,0.133-0.515c0.081-0.144,0.123-0.229,0.123-0.257
			c0-0.083-0.052-0.125-0.156-0.125c-0.229,0-0.484,0.133-0.773,0.398c-0.398,0.371-0.705,0.88-0.921,1.527
			c-0.331,1.007-0.497,1.813-0.497,2.416v1.668c0,0.188,0.066,0.332,0.199,0.432s0.359,0.149,0.68,0.149h0.988v0.623H290.2v-0.623
			h0.773c0.259,0,0.455-0.051,0.588-0.154c0.133-0.102,0.2-0.225,0.2-0.369v-4.956c0-0.376-0.081-0.652-0.242-0.826
			c-0.159-0.175-0.389-0.262-0.688-0.262h-0.681V78.735z"/>
		<path fill="#171717" d="M309.136,79.175c0.553-0.559,1.063-0.838,1.526-0.838c0.278,0,0.508,0.088,0.69,0.266
			c0.182,0.177,0.272,0.393,0.272,0.647c0,0.205-0.062,0.375-0.187,0.51c-0.123,0.136-0.269,0.204-0.436,0.204
			c-0.315,0-0.528-0.194-0.639-0.581c-0.045-0.166-0.119-0.249-0.224-0.249c-0.188,0-0.394,0.125-0.614,0.374
			c0.238,0.327,0.401,0.61,0.489,0.851c0.088,0.241,0.134,0.5,0.134,0.776c0,0.481-0.117,0.906-0.351,1.274
			c-0.232,0.368-0.618,0.693-1.157,0.975s-1.055,0.423-1.547,0.423h-0.906c-0.641,0-1.068,0.066-1.277,0.199
			c-0.211,0.138-0.316,0.34-0.316,0.606c0,0.216,0.086,0.382,0.258,0.498s0.496,0.174,0.972,0.174l2.05-0.042
			c1.034,0,1.78,0.173,2.237,0.519c0.456,0.346,0.684,0.82,0.684,1.423c0,0.664-0.259,1.223-0.779,1.677
			c-0.725,0.642-1.808,0.963-3.246,0.963c-1.188,0-2.071-0.219-2.647-0.656c-0.453-0.343-0.681-0.728-0.681-1.154
			c0-0.327,0.146-0.625,0.437-0.896c0.289-0.271,0.777-0.473,1.464-0.606c-0.547-0.133-0.96-0.328-1.235-0.585
			c-0.278-0.258-0.416-0.577-0.416-0.959c0-0.354,0.112-0.663,0.336-0.926c0.224-0.263,0.613-0.488,1.166-0.676
			c-0.471-0.26-0.824-0.574-1.062-0.942c-0.239-0.368-0.356-0.79-0.356-1.266c0-0.752,0.295-1.383,0.887-1.893
			s1.362-0.764,2.309-0.764c0.388,0,0.76,0.055,1.121,0.166C308.449,78.78,308.799,78.948,309.136,79.175z M307.441,86.521
			c-1.018,0-1.743,0.141-2.179,0.423c-0.435,0.282-0.651,0.623-0.651,1.021c0,0.376,0.163,0.672,0.491,0.888
			c0.431,0.288,1.045,0.432,1.842,0.432c0.951,0,1.668-0.158,2.15-0.473c0.48-0.315,0.722-0.667,0.722-1.054
			c0-0.227-0.075-0.438-0.225-0.635c-0.149-0.197-0.388-0.346-0.714-0.448C308.553,86.573,308.073,86.521,307.441,86.521z
			 M306.953,79.034c-0.492,0-0.9,0.181-1.221,0.543c-0.321,0.363-0.482,0.871-0.482,1.523c0,0.697,0.161,1.238,0.482,1.623
			c0.32,0.384,0.731,0.577,1.229,0.577s0.904-0.187,1.223-0.56c0.318-0.374,0.478-0.909,0.478-1.606
			c0-0.647-0.162-1.159-0.484-1.536C307.854,79.222,307.444,79.034,306.953,79.034z"/>
		<path fill="#171717" d="M325.879,85.658l0.299,0.465c-0.403,0.415-0.853,0.623-1.346,0.623c-0.375,0-0.691-0.103-0.95-0.307
			c-0.257-0.205-0.482-0.564-0.676-1.079c-0.525,0.553-0.988,0.923-1.387,1.108c-0.398,0.186-0.877,0.278-1.437,0.278
			c-0.796,0-1.401-0.171-1.817-0.515c-0.414-0.343-0.621-0.783-0.621-1.32c0-0.808,0.473-1.479,1.422-2.013
			c0.949-0.534,2.212-0.889,3.791-1.066v-1.179c0-0.42-0.17-0.78-0.508-1.079s-0.767-0.448-1.285-0.448
			c-0.482,0-0.897,0.1-1.246,0.299c-0.248,0.149-0.373,0.296-0.373,0.44c0,0.083,0.066,0.213,0.199,0.39
			c0.159,0.221,0.239,0.418,0.239,0.589c0,0.249-0.08,0.453-0.239,0.61c-0.161,0.158-0.371,0.237-0.632,0.237
			c-0.276,0-0.507-0.094-0.692-0.282s-0.278-0.429-0.278-0.722c0-0.548,0.308-1.049,0.925-1.502s1.428-0.681,2.429-0.681
			c0.925,0,1.629,0.199,2.116,0.598c0.487,0.404,0.73,0.894,0.73,1.469v4.25c0,0.376,0.062,0.653,0.183,0.83
			c0.122,0.183,0.28,0.274,0.474,0.274C325.415,85.924,325.641,85.835,325.879,85.658z M323.157,82.379
			c-1.407,0.194-2.402,0.509-2.988,0.946c-0.438,0.332-0.657,0.802-0.657,1.411c0,0.426,0.113,0.76,0.341,1
			c0.227,0.241,0.522,0.361,0.888,0.361c0.654,0,1.22-0.248,1.697-0.743c0.479-0.495,0.72-1.116,0.72-1.863V82.379z"/>
		<path fill="#171717" d="M332.347,78.735l2.798-0.141v3.146c0.3-1.035,0.658-1.818,1.079-2.349s0.941-0.797,1.56-0.797
			c0.421,0,0.758,0.129,1.009,0.386c0.253,0.258,0.378,0.602,0.378,1.034c0,0.349-0.083,0.62-0.253,0.813
			c-0.168,0.194-0.381,0.291-0.635,0.291c-0.249,0-0.45-0.083-0.602-0.249c-0.152-0.166-0.229-0.39-0.229-0.672
			c0-0.183,0.044-0.354,0.133-0.515c0.084-0.144,0.125-0.229,0.125-0.257c0-0.083-0.053-0.125-0.158-0.125
			c-0.228,0-0.484,0.133-0.772,0.398c-0.397,0.371-0.705,0.88-0.922,1.527c-0.331,1.007-0.497,1.813-0.497,2.416v1.668
			c0,0.188,0.066,0.332,0.198,0.432c0.133,0.1,0.361,0.149,0.682,0.149h0.988v0.623h-4.831v-0.623h0.771
			c0.26,0,0.456-0.051,0.589-0.154c0.133-0.102,0.199-0.225,0.199-0.369v-4.956c0-0.376-0.079-0.652-0.24-0.826
			c-0.161-0.175-0.39-0.262-0.688-0.262h-0.682V78.735z"/>
		<path fill="#171717" d="M347.421,75.564h0.557v3.171h2.516v0.764h-2.516v4.989c0,0.432,0.102,0.762,0.307,0.992
			c0.206,0.229,0.465,0.344,0.781,0.344c0.375,0,0.696-0.174,0.963-0.523c0.266-0.349,0.421-0.924,0.465-1.727h0.556
			c-0.033,1.035-0.269,1.803-0.706,2.304c-0.438,0.5-1.004,0.751-1.702,0.751c-0.642,0-1.144-0.176-1.505-0.527
			c-0.362-0.351-0.545-0.812-0.545-1.382v-5.221h-1.352v-0.581c0.615-0.105,1.085-0.362,1.406-0.772
			C347.124,77.532,347.382,76.671,347.421,75.564z"/>
		<path fill="#171717" d="M364.638,82.678h-5.568c0.026,1.184,0.247,2.02,0.663,2.507c0.476,0.548,1.081,0.822,1.817,0.822
			c1.086,0,1.957-0.617,2.615-1.851l0.539,0.232c-0.807,1.572-1.976,2.357-3.502,2.357c-1.041,0-1.916-0.376-2.628-1.129
			c-0.71-0.752-1.066-1.715-1.066-2.889c0-1.262,0.35-2.281,1.05-3.059c0.7-0.778,1.563-1.167,2.586-1.167
			c0.752,0,1.402,0.194,1.951,0.581c0.547,0.387,0.959,0.943,1.236,1.668C364.524,81.262,364.628,81.903,364.638,82.678z
			 M359.069,82.089h3.368c0.199,0,0.354-0.068,0.466-0.204c0.111-0.135,0.166-0.366,0.166-0.693c0-0.609-0.19-1.126-0.569-1.552
			s-0.826-0.639-1.339-0.639c-0.576,0-1.065,0.257-1.467,0.772C359.294,80.288,359.085,81.06,359.069,82.089z"/>
		<path fill="#171717" d="M371.195,78.735l2.583-0.158c0.104,0.487,0.183,1.057,0.232,1.71c0.348-0.564,0.759-0.988,1.232-1.27
			c0.473-0.282,1.008-0.423,1.605-0.423c0.516,0,0.946,0.101,1.296,0.303c0.349,0.202,0.628,0.522,0.838,0.959
			s0.315,0.927,0.315,1.469v3.785c0,0.282,0.063,0.483,0.191,0.602c0.126,0.119,0.339,0.178,0.639,0.178h0.549v0.623h-4.103v-0.623
			h0.392c0.365,0,0.62-0.058,0.763-0.174c0.144-0.116,0.216-0.291,0.216-0.523v-3.329c0-0.725-0.109-1.262-0.332-1.61
			c-0.31-0.498-0.78-0.747-1.41-0.747c-0.625,0-1.146,0.252-1.565,0.755c-0.417,0.503-0.626,1.159-0.626,1.967v2.88
			c0,0.282,0.064,0.483,0.195,0.602c0.13,0.119,0.343,0.178,0.643,0.178h0.539v0.623h-4.117v-0.623h0.541
			c0.271,0,0.476-0.055,0.617-0.166c0.141-0.111,0.212-0.249,0.212-0.415v-5.022c0-0.332-0.091-0.584-0.271-0.755
			s-0.438-0.257-0.775-0.257h-0.399V78.735z"/>
	</g>
</g>
<g id="logo">
	<g>
		<path fill="#171717" d="M30.582,44.601c0,0,0.559-5.999-5.465-7.987c-0.014-0.005-0.027-0.008-0.042-0.012
			c0.008-0.012,0.017-0.023,0.024-0.036c3.48-5.305-0.688-9.655-0.688-9.655s-5.649-2.091-9.131,3.213
			c-0.008,0.011-0.015,0.024-0.021,0.036c-0.01-0.011-0.02-0.021-0.028-0.033c-4.223-4.735-9.504-1.833-9.504-1.833
			s-3.286,4.639,0.398,9.244C0.889,40.245,2,45.816,2,45.816s3.105,4.094,8.137,2.669c0.697,5.183,5.688,6.402,5.688,6.402
			s5.517-1.191,5.949-7.018C27.576,49.56,30.582,44.601,30.582,44.601z"/>
		<circle fill="#FFFFFF" cx="17.762" cy="37.096" r="1.442"/>
		<circle fill="#FFFFFF" cx="12.232" cy="39.891" r="1.442"/>
		<circle fill="#FFFFFF" cx="17.248" cy="43.182" r="1.442"/>
		<path fill="#171717" d="M40.675,17.354c0,0-2.673-2.692-6.067-0.583c-0.006,0.005-0.015,0.011-0.023,0.015
			c-0.001-0.008-0.003-0.018-0.006-0.026c-1.16-3.823-4.943-3.565-4.943-3.565s-3.294,1.422-2.133,5.244
			C27.504,18.448,27.507,18,27.511,18c-0.01,0-0.018,0-0.028,0c-3.994,0-4.722,4.318-4.722,4.318s0.914,3.693,4.628,3.772
			c-0.806,3.622,2.335,5.452,2.335,5.452s3.232,0.209,4.576-2.797c2.785,1.755,5.389-0.136,5.389-0.136s1.651-3.131-0.991-5.693
			C41.858,20.794,40.675,17.354,40.675,17.354z"/>
		<circle fill="#FFFFFF" cx="31.872" cy="20.52" r="0.907"/>
		<circle fill="#FFFFFF" cx="30.991" cy="24.32" r="0.908"/>
		<circle fill="#FFFFFF" cx="34.606" cy="23.225" r="0.907"/>
		<path fill="#171717" stroke="#171717" stroke-linejoin="round" stroke-miterlimit="10" d="M55.472,8.693
			c0,0-2.067-1.627-4.211,0.165c-0.005,0.004,0.033-0.012,0.033-0.012c-0.001-0.004-0.005-0.01-0.006-0.016
			c-1.176-2.537-3.735-2.007-3.735-2.007s-2.059,1.61-0.883,4.146c0.003,0.006,0.005,0.011,0.009,0.017
			c-0.355,0.163-0.102,0.042-0.108,0.044c-2.753,0.479-2.941,3.15-2.941,3.15s0.95,2.32,3.531,2.013
			c-0.206,2.59,2.126,3.476,2.126,3.476s2.25-0.208,2.888-2.422c2.103,0.945,3.717-0.638,3.717-0.638s0.835-2.341-1.245-3.858
			C56.631,10.971,55.472,8.693,55.472,8.693z"/>
		<circle fill="#FFFFFF" stroke="#171717" stroke-linejoin="round" stroke-miterlimit="10" cx="49.68" cy="11.746" r="0.636"/>
		<circle fill="#FFFFFF" stroke="#171717" stroke-linejoin="round" stroke-miterlimit="10" cx="49.44" cy="14.465" r="0.635"/>
		<circle fill="#FFFFFF" stroke="#171717" stroke-linejoin="round" stroke-miterlimit="10" cx="51.839" cy="13.354" r="0.635"/>
		<path fill="#171717" d="M78.96,32.782c0,0-0.829-3.737-4.897-3.696c-0.009,0,0.049,0.019,0.049,0.02
			c0.001-0.009,0.004-0.018,0.005-0.026c1.015-3.941-2.354-5.702-2.354-5.702s-3.804-0.083-4.817,3.857
			c-0.002,0.009-0.002,0.018-0.006,0.027c-0.55-0.144-0.153-0.045-0.16-0.05c-3.545-1.999-6.217,0.839-6.217,0.839
			s-1.068,3.488,2.122,5.52c-2.615,2.728-0.804,5.875-0.804,5.875s2.725,1.84,5.485-0.067c1.496,3.001,4.778,2.706,4.778,2.706
			s3.097-1.866,2.151-5.494C78.166,36.417,78.96,32.782,78.96,32.782z"/>
		<circle fill="#FFFFFF" cx="69.621" cy="30.884" r="0.925"/>
		<circle fill="#FFFFFF" cx="66.844" cy="33.727" r="0.925"/>
		<circle fill="#FFFFFF" cx="70.571" cy="34.685" r="0.924"/>
		<path fill="#171717" d="M60.945,82.45c0,0,2.183-4.932-2.363-8.335c-0.011-0.007-0.023-0.016-0.033-0.022
			c0.01-0.008,0.022-0.015,0.032-0.023c4.463-3.511,2.165-8.39,2.165-8.39s-4.2-3.384-8.663,0.126
			c-0.01,0.009-0.02,0.016-0.03,0.025c-0.006-0.012-0.01-0.024-0.015-0.036c-2.234-5.221-7.543-4.262-7.543-4.262
			s-4.108,3.001-2.294,7.958c-5.213,0.806-5.856,5.852-5.856,5.852s1.47,4.358,6.145,4.581c-0.884,4.598,3.004,7.053,3.004,7.053
			s5.021,0.561,7.047-4.263C56.981,85.802,60.945,82.45,60.945,82.45z"/>
		<circle fill="#FFFFFF" cx="52.201" cy="72.43" r="1.29"/>
		<circle fill="#FFFFFF" cx="46.713" cy="73.228" r="1.291"/>
		<circle fill="#FFFFFF" cx="50.033" cy="77.448" r="1.291"/>
		<path fill="#171717" d="M38.219,5.417c0,0-1.698,0.318-1.74,2.151c0,0.004,0.008-0.021,0.012-0.021
			c-0.006-0.001-0.008-0.003-0.013-0.004c-1.76-0.515-2.604,0.977-2.604,0.977s-0.095,1.712,1.667,2.228
			c0.004,0,0.007,0.001,0.012,0.003c-0.072,0.247-0.023,0.069-0.025,0.072c-0.952,1.566,0.286,2.813,0.286,2.813
			s1.556,0.532,2.518-0.874c1.19,1.219,2.635,0.45,2.635,0.45s0.869-1.199,0.05-2.471c1.376-0.63,1.291-2.111,1.291-2.111
			s-0.794-1.424-2.441-1.053C39.843,5.829,38.219,5.417,38.219,5.417z"/>
		<path fill="none" stroke="#171717" stroke-linejoin="round" stroke-miterlimit="10" d="M12.847,55.539c0,0-0.539-2.167-2.906-2.09
			c-0.007,0,0.02,0.008,0.02,0.008c0.002-0.004,0.004-0.009,0.005-0.015c0.584-2.296-1.44-3.287-1.44-3.287s-2.211,0.001-2.75,2.309
			c-0.001,0.005,0,0.011-0.001,0.016c-0.323-0.077-0.089-0.024-0.095-0.026c-2.088-1.118-3.607,0.569-3.607,0.569
			s-0.576,2.045,1.307,3.187c-1.488,1.622-0.391,3.431-0.391,3.431s1.61,1.035,3.191-0.111c0.911,1.729,2.816,1.514,2.816,1.514
			s1.78-1.126,1.183-3.226C12.431,57.665,12.847,55.539,12.847,55.539z"/>
		<path fill="none" stroke="#171717" stroke-linejoin="round" stroke-miterlimit="10" d="M23.269,11.908
			c0,0-1.672-0.272-2.321,1.406c-0.001,0.003,0.017-0.017,0.017-0.016c-0.003-0.003-0.006-0.005-0.01-0.008
			c-1.453-1.061-2.727,0.036-2.727,0.036s-0.657,1.547,0.796,2.607c0.003,0.003,0.007,0.006,0.008,0.008
			c-0.149,0.202-0.043,0.055-0.045,0.058c-1.401,1.128-0.673,2.69-0.673,2.69s1.257,1.009,2.614,0.032
			c0.692,1.521,2.281,1.292,2.281,1.292s1.203-0.818,0.869-2.263c1.478-0.124,1.893-1.519,1.893-1.519s-0.259-1.577-1.902-1.784
			C24.63,12.829,23.269,11.908,23.269,11.908z"/>
		<path fill="#171717" d="M42.419,40.824c0,0,0.273-2.216-1.964-2.994c-0.005-0.002,0.017,0.015,0.017,0.017
			c0.001-0.005,0.005-0.009,0.008-0.013c1.372-1.934-0.165-3.585-0.165-3.585s-2.063-0.792-3.395,1.169
			c-0.003,0.003-0.005,0.011-0.006,0.015c-0.274-0.187-0.075-0.055-0.078-0.059c-1.551-1.792-3.573-0.762-3.573-0.762
			s-1.271,1.701,0.077,3.443c-1.969,0.98-1.598,3.063-1.598,3.063s1.133,1.544,3.021,1.041c0.23,1.94,2.085,2.423,2.085,2.423
			s2.066-0.414,2.262-2.588C41.268,42.659,42.419,40.824,42.419,40.824z"/>
		<path fill="#171717" d="M82.849,49.714c0,0,0.278-2.217-1.962-2.995c-0.005-0.002,0.017,0.016,0.016,0.017
			c0.004-0.004,0.006-0.009,0.009-0.013c1.371-1.933-0.163-3.585-0.163-3.585s-2.065-0.792-3.395,1.169
			c-0.003,0.005-0.005,0.011-0.009,0.015c-0.274-0.188-0.074-0.055-0.076-0.058c-1.553-1.793-3.573-0.763-3.573-0.763
			s-1.271,1.702,0.079,3.444c-1.972,0.979-1.598,3.062-1.598,3.062s1.131,1.544,3.018,1.042c0.23,1.94,2.088,2.423,2.088,2.423
			s2.063-0.413,2.26-2.587C81.699,51.549,82.849,49.714,82.849,49.714z"/>
		<path fill="none" stroke="#171717" stroke-linejoin="round" stroke-miterlimit="10" d="M56.663,51.654
			c0,0,0.398-3.209-2.843-4.336c-0.008-0.003,0.023,0.021,0.021,0.023c0.005-0.006,0.01-0.012,0.013-0.018
			c1.987-2.801-0.237-5.193-0.237-5.193s-2.99-1.146-4.917,1.694c-0.003,0.006-0.005,0.015-0.01,0.021
			c-0.396-0.272-0.108-0.079-0.113-0.084c-2.244-2.597-5.173-1.104-5.173-1.104s-1.841,2.465,0.111,4.987
			c-2.853,1.42-2.314,4.436-2.314,4.436s1.642,2.237,4.375,1.508c0.332,2.81,3.021,3.509,3.021,3.509s2.991-0.599,3.275-3.748
			C54.998,54.312,56.663,51.654,56.663,51.654z"/>
		<path fill="none" stroke="#171717" stroke-linejoin="round" stroke-miterlimit="10" d="M63.303,12.561
			c0,0-2.211,0.413-2.268,2.801c0,0.006,0.012-0.028,0.013-0.027c-0.005-0.001-0.01-0.004-0.017-0.005
			c-2.292-0.673-3.394,1.269-3.394,1.269s-0.125,2.23,2.168,2.905c0.005,0,0.012,0.002,0.017,0.004
			c-0.096,0.32-0.03,0.089-0.032,0.093c-1.246,2.04,0.367,3.666,0.367,3.666s2.025,0.697,3.282-1.135
			c1.549,1.59,3.433,0.591,3.433,0.591s1.134-1.563,0.07-3.221c1.792-0.818,1.683-2.749,1.683-2.749s-1.033-1.856-3.181-1.374
			C65.42,13.101,63.303,12.561,63.303,12.561z"/>
		<path fill="#171717" d="M56.611,30.75c0,0,0.002-3.233-3.354-3.956c-0.006-0.002,0.027,0.019,0.027,0.02
			c0.003-0.007,0.006-0.013,0.011-0.02c1.627-3.022-0.873-5.124-0.873-5.124s-3.106-0.772-4.672,2.281
			c-0.003,0.007-0.005,0.015-0.008,0.022c-0.428-0.221-0.116-0.065-0.123-0.07c-2.542-2.303-5.27-0.464-5.27-0.464
			s-1.526,2.671,0.722,4.937c-2.66,1.758-1.755,4.684-1.755,4.684s1.901,2.02,4.524,0.963c0.675,2.749,3.427,3.114,3.427,3.114
			s2.896-0.958,2.793-4.119C55.28,33.593,56.611,30.75,56.611,30.75z"/>
		<path fill="#171717" d="M21.948,71.903c0,0,1.413-2.91-1.294-5.021c-0.005-0.005,0.017,0.028,0.015,0.03
			c0.007-0.005,0.014-0.009,0.019-0.014c2.783-2.01,1.45-4.992,1.45-4.992s-2.46-2.049-5.2,0.017
			c-0.007,0.004-0.011,0.012-0.019,0.016c-0.287-0.385-0.076-0.108-0.079-0.116c-1.288-3.182-4.542-2.714-4.542-2.714
			s-2.536,1.739-1.502,4.757c-3.158,0.423-3.619,3.453-3.619,3.453s0.829,2.646,3.654,2.838c-0.593,2.768,1.726,4.295,1.726,4.295
			s3.025,0.399,4.31-2.49C19.513,73.882,21.948,71.903,21.948,71.903z"/>
		<path fill="#171717" d="M73.915,70.895c0,0,2.857-1.57,1.922-4.872C75.835,66.015,75.833,66,75.832,66c0.007,0,0.014,0,0.021,0
			c3.433,0,4.119-3.117,4.119-3.117s-0.773-3.079-4.207-3.03c-0.007,0.001-0.016,0.018-0.024,0.018
			c-0.004-0.481,0.004-0.126,0.005-0.134c0.841-3.328-2.061-4.869-2.061-4.869s-3.074-0.094-4.024,2.952
			c-2.797-1.524-4.959,0.649-4.959,0.649s-0.893,2.626,1.272,4.449c-2.113,1.884-1.144,4.486-1.144,4.486s2.206,2.109,4.947,0.536
			C70.778,71.054,73.915,70.895,73.915,70.895z"/>
		<path fill="#171717" d="M34.036,63.153c0,0,2.37-2.199,0.615-5.149c-0.003-0.007,0.003,0.033,0.001,0.033
			c0.009-0.002,0.017-0.004,0.023-0.005c3.32-0.865,3.16-4.127,3.16-4.127s-1.551-2.802-4.855-1.868
			c-0.006,0.002-0.013,0.007-0.021,0.009c-0.127-0.463-0.031-0.13-0.031-0.137c-0.046-3.433-3.249-4.175-3.249-4.175
			s-2.996,0.701-3.125,3.889c-3.097-0.75-4.624,1.907-4.624,1.907s-0.185,2.767,2.376,3.969c-1.554,2.364,0.055,4.629,0.055,4.629
			s2.673,1.468,4.917-0.76C31.05,64.115,34.036,63.153,34.036,63.153z"/>
		<path fill="none" stroke="#171717" stroke-linejoin="round" stroke-miterlimit="10" d="M30.366,78.686c0,0-0.211-2.223-2.564-2.5
			c-0.005-0.001,0.021,0.012,0.02,0.014c0.001-0.006,0.003-0.01,0.007-0.016c0.92-2.183-0.934-3.465-0.934-3.465
			s-2.186-0.327-3.063,1.875c-0.003,0.004-0.003,0.01-0.003,0.016c-0.308-0.125-0.084-0.038-0.089-0.042
			c-1.899-1.416-3.652,0.027-3.652,0.027s-0.874,1.935,0.819,3.346c-1.713,1.381-0.899,3.334-0.899,3.334s1.438,1.263,3.173,0.366
			c0.644,1.844,2.56,1.915,2.56,1.915s1.927-0.848,1.65-3.013C29.637,80.726,30.366,78.686,30.366,78.686z"/>
		<path fill="#171717" d="M60.183,54.845c0,0-1.67-0.272-2.319,1.406c0,0.004,0.017-0.017,0.017-0.016
			c-0.003-0.002-0.005-0.004-0.01-0.007c-1.451-1.061-2.726,0.035-2.726,0.035s-0.655,1.548,0.796,2.609
			c0.003,0.002,0.006,0.004,0.01,0.007c-0.149,0.203-0.043,0.054-0.046,0.058c-1.4,1.128-0.673,2.69-0.673,2.69
			s1.259,1.009,2.614,0.031c0.693,1.521,2.282,1.292,2.282,1.292s1.201-0.817,0.869-2.262c1.477-0.124,1.893-1.518,1.893-1.518
			s-0.259-1.578-1.902-1.784C61.546,55.766,60.183,54.845,60.183,54.845z"/>
		<path fill="none" stroke="#171717" stroke-linejoin="round" stroke-miterlimit="10" d="M65.273,44.277c0,0-1.67-0.271-2.32,1.406
			c-0.002,0.003,0.016-0.018,0.016-0.018c-0.003-0.002-0.004-0.003-0.008-0.007c-1.453-1.06-2.729,0.035-2.729,0.035
			s-0.655,1.547,0.796,2.608c0.003,0.002,0.007,0.004,0.01,0.007c-0.149,0.203-0.043,0.055-0.047,0.058
			c-1.401,1.128-0.671,2.69-0.671,2.69s1.257,1.009,2.614,0.032c0.69,1.521,2.281,1.292,2.281,1.292s1.201-0.818,0.869-2.264
			c1.478-0.123,1.891-1.517,1.891-1.517s-0.259-1.578-1.901-1.784C66.634,45.197,65.273,44.277,65.273,44.277z"/>
		<path fill="#171717" d="M36.305,79.115c0,0-1.67-0.272-2.319,1.406c-0.002,0.003,0.015-0.018,0.017-0.017
			c-0.003-0.002-0.007-0.004-0.01-0.007c-1.453-1.061-2.727,0.035-2.727,0.035s-0.657,1.547,0.796,2.608
			c0.003,0.002,0.006,0.005,0.01,0.007c-0.149,0.203-0.044,0.056-0.046,0.058c-1.401,1.128-0.673,2.69-0.673,2.69
			s1.259,1.009,2.614,0.032c0.692,1.521,2.281,1.292,2.281,1.292s1.203-0.818,0.871-2.263c1.476-0.124,1.893-1.518,1.893-1.518
			s-0.259-1.579-1.905-1.784C37.668,80.036,36.305,79.115,36.305,79.115z"/>
		<path fill="#171717" d="M34.952,66.135c0,0-1.405-0.942-2.694,0.313c-0.003,0.003,0.021-0.009,0.021-0.009
			c-0.001-0.003-0.004-0.006-0.006-0.011c-0.879-1.569-2.493-1.103-2.493-1.103s-1.241,1.134-0.363,2.703
			c0.001,0.003,0.005,0.006,0.007,0.011c-0.219,0.122-0.063,0.032-0.067,0.033c-1.743,0.442-1.731,2.166-1.731,2.166
			s0.724,1.441,2.362,1.117c-0.003,1.671,1.538,2.125,1.538,2.125s1.431-0.243,1.733-1.695c1.395,0.502,2.352-0.592,2.352-0.592
			s0.421-1.542-0.986-2.415C35.806,67.54,34.952,66.135,34.952,66.135z"/>
		<path fill="none" stroke="#171717" stroke-linejoin="round" stroke-miterlimit="10" d="M68.937,70.771
			c0,0-1.559-0.662-2.587,0.814c-0.002,0.003,0.019-0.013,0.019-0.012c-0.002-0.004-0.004-0.006-0.008-0.009
			c-1.158-1.376-2.655-0.614-2.655-0.614s-1.006,1.347,0.153,2.722c0.002,0.003,0.003,0.006,0.007,0.01
			c-0.192,0.161-0.056,0.043-0.06,0.044c-1.629,0.763-1.292,2.454-1.292,2.454s0.98,1.279,2.531,0.652
			c0.31,1.642,1.907,1.797,1.907,1.797s1.362-0.509,1.383-1.992c1.464,0.232,2.199-1.024,2.199-1.024s0.125-1.594-1.424-2.185
			C70.04,71.99,68.937,70.771,68.937,70.771z"/>
		<path fill="#171717" d="M13.132,18.481c0,0-1.579,0.722-1.201,2.516C11.933,21.001,11.935,21,11.935,21c-0.003,0-0.007,0-0.012,0
			c-1.831,0-2.312,1.52-2.312,1.52s0.3,1.675,2.131,1.774c0.003,0,0.006-0.006,0.013-0.005c-0.017,0.256-0.007,0.068-0.008,0.071
			c-0.571,1.744,0.921,2.672,0.921,2.672s1.635,0.164,2.252-1.426c1.437,0.916,2.667-0.165,2.667-0.165s0.572-1.366-0.516-2.417
			c1.196-0.927,0.775-2.35,0.775-2.35s-1.098-1.206-2.618-0.467C14.808,18.511,13.132,18.481,13.132,18.481z"/>
	</g>
</g>
<g id="ガイド">
</g>
</svg>
